/* XPM */
static char *_b4181e02ecc40abf39fa9bbe10ec2bekKHfqCd5jDkbYVr7[] = {
/* columns rows colors chars-per-pixel */
"90 83 208 2 ",
"   c #010000",
".  c #0B0000",
"X  c #000904",
"o  c #000D0B",
"O  c #130000",
"+  c #1B0200",
"@  c #1F0B00",
"#  c #190E0B",
"$  c #1E110D",
"%  c #001414",
"&  c #071C1A",
"*  c #181A1B",
"=  c #2C0000",
"-  c #210C01",
";  c #221103",
":  c #24140C",
">  c #25190C",
",  c #241813",
"<  c #241914",
"1  c #241E1C",
"2  c #26201B",
"3  c #29211C",
"4  c #000F26",
"5  c #191F22",
"6  c #211E20",
"7  c #00222C",
"8  c #132221",
"9  c #1A2526",
"0  c #002A33",
"q  c #042B33",
"w  c #1B3239",
"e  c #212222",
"r  c #2A2523",
"t  c #2C2926",
"y  c #272628",
"u  c #2C2C2C",
"i  c #332E2B",
"p  c #29302F",
"a  c #31312D",
"s  c #2A2E31",
"d  c #2D3233",
"f  c #273438",
"g  c #323333",
"h  c #383333",
"j  c #343738",
"k  c #363B3B",
"l  c #393D3D",
"z  c #423939",
"x  c #3A413F",
"c  c #1C3843",
"v  c #373E43",
"b  c #3B3F40",
"n  c #3B4447",
"m  c #3E4444",
"M  c #3E494C",
"N  c #394851",
"B  c #414646",
"V  c #4A4645",
"C  c #454846",
"Z  c #424749",
"A  c #444A4B",
"S  c #4B4C4D",
"D  c #5E4B41",
"F  c #434E51",
"G  c #4C4E51",
"H  c #465154",
"J  c #4C5253",
"K  c #49545A",
"L  c #4D595D",
"P  c #515456",
"I  c #595657",
"U  c #535659",
"Y  c #55595B",
"T  c #5A5C5D",
"R  c #635D5B",
"E  c #71685C",
"W  c #4E5C61",
"Q  c #515E61",
"!  c #5B5E61",
"~  c #605E60",
"^  c #526165",
"/  c #5E6164",
"(  c #596469",
")  c #58696D",
"_  c #5C6C72",
"`  c #5E7176",
"'  c #616466",
"]  c #6B6967",
"[  c #626669",
"{  c #65696D",
"}  c #696C6E",
"|  c #7B6F68",
" . c #7C7166",
".. c #656D73",
"X. c #6A6D71",
"o. c #6E7175",
"O. c #62757A",
"+. c #69757A",
"@. c #727375",
"#. c #73767A",
"$. c #757A7D",
"%. c #797B7D",
"&. c #8A796D",
"*. c #8C7D72",
"=. c #907B71",
"-. c #9B8779",
";. c #A38775",
":. c #677B81",
">. c #6A7E84",
",. c #737C81",
"<. c #797E82",
"1. c #6B8086",
"2. c #6E858B",
"3. c #7E8286",
"4. c #71868C",
"5. c #7E8489",
"6. c #77898F",
"7. c #738B92",
"8. c #7A8F95",
"9. c #7B9299",
"0. c #7B949B",
"q. c #7F9AA2",
"w. c #72A1AE",
"e. c #82868A",
"r. c #83898C",
"t. c #888A8C",
"y. c #998D85",
"u. c #8A8D90",
"i. c #8F9192",
"p. c #82969C",
"a. c #979899",
"s. c #A79586",
"d. c #B79C8C",
"f. c #B59E91",
"g. c #BDA591",
"h. c #829CA4",
"j. c #85A2AA",
"k. c #89A5AD",
"l. c #8CABB3",
"z. c #8FAEB8",
"x. c #90ACB5",
"c. c #90AFB8",
"v. c #93B2BB",
"b. c #A2A9AA",
"n. c #B9B4AD",
"m. c #B5B7B8",
"M. c #CEA78C",
"N. c #C4A995",
"B. c #C8AB96",
"V. c #CDAD99",
"C. c #D3AE99",
"Z. c #CEB19A",
"A. c #D2B19A",
"S. c #DCB599",
"D. c #DAB69E",
"F. c #E7BB9C",
"G. c #D5B5A0",
"H. c #DCB9A2",
"J. c #CCBCB1",
"K. c #E2BCA3",
"L. c #E8BFA6",
"P. c #D8C3B3",
"I. c #ECC2A5",
"U. c #E5C1A9",
"Y. c #ECC4AA",
"T. c #F5C4A4",
"R. c #F2C6AA",
"E. c #F6C9AB",
"W. c #FACBAD",
"Q. c #F5CBB0",
"!. c #FCCEB1",
"~. c #FFD1B3",
"^. c #96B7C0",
"/. c #98B7C1",
"(. c #9ABBC4",
"). c #9CBFC9",
"_. c #9EC1CB",
"`. c #9DC5D1",
"'. c #A1C4CE",
"]. c #B2C6CA",
"[. c #A3C6D1",
"{. c #A6CAD5",
"}. c #A9CBD5",
"|. c #A9CED9",
" X c #B5CDD3",
".X c #ADD3DD",
"XX c #B3D1D9",
"oX c #AED5E1",
"OX c #B0D7E3",
"+X c #B2DAE5",
"@X c #B6DEEA",
"#X c #B7E1EC",
"$X c #B9E2EE",
"%X c #B8E6F3",
"&X c #BDE7F3",
"*X c #BFE9F5",
"=X c #C2C5C5",
"-X c #C8C9CB",
";X c #CFD1D2",
":X c #D3D4D6",
">X c #D7D9DB",
",X c #DADCDD",
"<X c #DDDFE0",
"1X c #C0EAF6",
"2X c #C3EDFA",
"3X c #C5F0FD",
"4X c #C8F4FF",
"5X c #CBF8FF",
/* pixels */
"*X*X*X*X*X*X*X*X*X*X*X*X*X*X*X*X*X*X*X*X*X*X*X*X*X*X*X*X*X*X*X*X*X*X*X*X*X*X4X*X&X`.8.*.a. X$X*X*X*X1X*X*X*X*X*X*X*X*X*X*X*X*X*X*X*X*X*X*X*X*X*X*X*X*X*X*X*X*X*X*X*X*X*X*X*X*X*X*X*X",
"*X*X*X*X*X*X*X*X*X*X*X*X*X*X*X*X*X*X*X*X*X*X*X*X*X*X*X*X*X*X*X*X*X*X*X*X1XoXw.b.P.;.F.E.R.F.U.=X%X%X%X1X*X*X*X*X*X*X*X*X*X*X*X*X*X*X*X*X*X*X*X*X*X*X*X*X*X*X*X*X*X*X*X*X*X*X*X*X*X*X",
"*X*X*X*X*X*X*X*X*X*X*X*X*X*X*X*X*X*X*X*X*X*X*X*X*X*X*X*X*X*X*X*X*X*X*X3X_.-.M.S.R.Y.Y.y.' B.Q.T.J.J.n.%X*X*X*X*X*X*X*X*X*X*X*X*X*X*X*X*X*X*X*X*X*X*X*X*X*X*X*X*X*X*X*X*X*X*X*X*X*X*X",
"*X*X*X*X*X*X*X*X*X*X*X*X*X*X*X*X*X*X*X*X*X*X*X*X*X*X*X*X*X*X*X*X*X*X*X*XXXg.A.U.Q.Y.H.s.M.E.E.E.E.L.M. X2X*X*X*X*X*X*X*X*X*X*X*X1X*X*X*X*X*X*X*X*X*X*X*X*X*X*X*X*X*X*X*X*X*X*X1X*X*X",
"*X*X*X*X*X*X1X*X*X*X*X*X*X*X*X*X*X*X*X*X*X*X*X*X*X*X*X*X*X*X*X*X*X*X*X2X].s.-.Z.d.d.E.E.W.R.E.E.R.Q.G.+X*X*X*X*X*X*X*X*X*X*X*X*X*X*X*X*X*X*X*X*X*X*X*X1X*X*X*X*X*X*X*X*X*X*X*X*X*X*X",
"*X*X*X*X*X*X*X*X*X*X*X*X*X*X*X*X*X*X*X*X*X*X*X*X*X*X*X*X*X*X*X*X*X*X*X%XP.T.E.H.S.R.E.E.E.L.d.E.R.!.A.).2X*X&X&X&X*X*X*X*X*X*X*X*X*X*X*X*X*X*X*X*X*X*X*X*X*X*X*X*X*X*X*X*X*X*X*X*X*X",
"*X*X*X*X*X*X*X*X*X*X*X*X*X*X1X*X*X*X*X*X*X*X*X*X*X*X*X*X*X*X*X*X*X*X1XXXI.Y.E.~.Q.E.E.W.E.N.K.E.R.E.Q.D l.3X2X3X2X&X*X*X*X*X*X*X*X*X*X*X*X*X*X*X*X*X*X*X*X*X*X*X*X*X*X*X*X*X*X*X*X*X",
"*X*X*X*X*X*X*X*X*X*X*X*X*X*X*X*X*X*X*X*X*X*X*X*X*X*X*X*X*X*X*X*X&X*X*XXXT.H.H.Y.R.R.I.D.N.L.W.E.W.Q.-.( Y h.c.v.OX3X2X1X&X*X*X*X*X*X*X*X*X*X*X*X*X*X*X*X*X*X*X*X*X*X*X*X*X*X*X*X*X*X",
"*X*X*X*X*X*X*X*X*X*X*X*X*X*X*X*X*X*X*X*X*X*X*X*X*X*X*X1X*X*X*X1X2X3X1Xh.C.~.K.A.V.C.V.D.E.E.E.W.H.| ..~ '   > . K [.|.@X1X*X*X*X1X*X*X*X*X*X*X*X*X*X*X*X*X*X*X*X*X*X*X*X*X*X*X*X*X*X",
"*X*X*X*X*X*X*X*X*X*X*X*X*X*X*X*X*X*X*X*X*X*X*X*X*X*X*X*X2X1X3X&X{.v.p.,.] A.~.!.W.E.W.!.W.Q.Y.s.{ M o./ U A A n l 3 t A l.*X*X*X*X*X*X*X*X*X*X*X*X*X*X*X*X*X*X*X*X*X*X*X*X*X*X*X*X*X",
"*X*X*X*X*X1X*X*X*X*X*X*X*X*X*X*X*X*X*X*X*X*X*X*X*X&X1X2X+Xv.k.O.-   S #.b #.-.A.I.I.I.U.A.s.o.K o.X.U X.m l l m M A B m   9.*X*X*X*X*X*X*X*X*X*X*X*X*X*X*X*X*X*X*X*X*X*X*X*X*X*X*X*X",
"*X*X*X*X*X*X*X*X*X*X*X*X*X*X*X*X*X*X*X*X*X*X*X*X*X1X#Xp.A - + a m A l . <.X.N ..S ] R / N _ / } / o.* Y b m m m m m m m H   v.3X&X*X*X*X*X*X*X*X*X*X*X*X*X1X*X*X*X*X*X*X*X*X*X*X*X*X",
"*X*X*X*X*X*X*X*X*X*X*X*X*X1X*X*X*X*X*X*X*X*X*X*X2X.XL + m A A M m m [ } } B e.T ../ } o.S %.S [ A ..X.' l l m m m m m m m m H @X2X&X*X*X*X*X*X*X*X*X*X*X*X*X*X*X*X*X*X*X*X*X*X*X*X*X",
"*X*X*X*X*X*X*X*X*X*X*X*X*X*X*X*X*X*X*X*X*X*X*X3XOXm h H m m m m l d l Y ! ' ! m $.T { o.m o.S o.[ o.b j b m m m m m m m m A ; _.2X*X*X*X*X*X*X*X*X*X*X*X*X*X*X*X*X*X*X*X*X*X*X*X*X*X",
"*X*X*X*X*X*X*X*X*X*X*X*X*X*X*X*X*X*X*X*X*X&X*X$X( i A m m m m B b } #.[ S U / / { Y T 5.S o.J d J 6 [ $.m l m m m m m m m A + v.3X*X*X*X*X*X*X*X*X*X*X*X*X*X*X*X1X*X*X*X*X*X*X*X*X1X",
"*X*X*X*X*X*X*X*X*X*X*X*X*X*X*X*X*X*X*X*X*X&X3Xv.+ H m B B m m B p S U Y J j C S o.} S t.T h A l l $.! 6 g m m B m m m m m M @ v.3X$X*X*X*X*X*X*X*X*X*X*X*X*X*X*X*X*X*X*X*X*X*X*X*X*X",
"*X*X*X*X*X*X*X*X*X*X*X*X*X*X*X*X*X*X*X*X*X&X3Xk.- A m q x B k l ' [ T J k B m d S } f c 7 q f B #.b g ~ m m m m m m m m m A > _.2X&X1X*X*X*X*X*X*X*X*X*X*X*X*X*X*X*X*X*X*X*X*X*X*X*X",
"*X*X*X*X*X*X*X*X*X*X*X*X*X*X*X*X*X1X*X*X*X&X3X'.3 n m &.I w B k / X.$...k m m x k e.y.=.*.&.E 7 4 ~ <.Z m m m m m m m m m x H #X2X&X1X*X*X*X*X*X*X*X*X*X*X*X*X*X*X*X*X*X*X*X*X*X*X*X",
"*X*X*X*X*X*X1X*X*X*X*X*X*X*X*X*X*X*X*X*X1X&X1X#XH m g.B.H. .  c Y A j t k k x B * r.J.K.~.!.W.C.y.%.Z l B m m m m m m m A 3 4.2X&X1X*X*X*X*X*X*X*X*X*X*X*X*X*X*X*X*X1X*X*X*X1X*X*X*X",
"*X*X*X*X*X*X*X*X*X*X*X*X*X*X*X*X*X*X*X*X&X1X1X1X4.s.N.f.N.Z.V.g.%.' J x m m m m x P t.s G.Y.N.&. .V b B m m m m m B m m A + (.3X&X*X*X*X*X*X*X*X*X*X*X*X*X*X*X*X*X*X&X1X*X*X&X1X*X*X",
"*X*X*X*X*X*X*X*X*X*X*X*X*X*X*X*X*X*X*X*X1X1X&X2X9. .s.s.-.;.d.=.B j x m m m m m B l V m n A 0 0 w m B m m m m m m k m m x A @X*X&X1X*X*X*X*X&X1X*X*X*X*X*X*X*X*X1X*X*X*X*X*X*X*X*X*X",
"*X*X*X*X*X*X*X*X*X*X*X*X*X*X1X*X*X*X*X*X1X&X1X2X0.  B d q f 7 0 m B m m m m B m k l m m m m C C B m m m B m m m k m m A 3 6.1X*X*X*X*X*X*X*X1X*X*X*X*X*X*X*X*X*X&X1X*X*X*X*X*X*X*X*X",
"*X*X*X*X*X*X*X*X*X*X*X*X*X*X*X*X*X*X*X*X*X*X&X2Xz.; S B S C S C m m m m m m k x m m m m m B m m m B B x l m x k m m m A + ^.3X*X&X1X*X*X*X*X*X*X*X*X*X*X1X*X*X*X*X*X*X*X*X*X*X*X*X*X",
"*X*X*X*X*X*X*X*X*X*X*X*X*X*X*X*X*X*X*X*X*X*X*X2X+XA m B m B m m m m m m k k m m A m m m m m m m m j g A U m k m m m m m l oX1X*X1X*X*X*X*X*X*X*X*X*X*X*X*X*X*X*X*X*X*X*X*X*X*X*X*X*X",
"*X*X*X*X*X*X*X*X*X*X*X*X*X*X*X*X*X*X*X*X*X*X*X&X2Xh.  B l l l k x x k k m m m m u m m m l l x l j A / 3.3.U m m m m M a ` *X*X*X*X*X*X*X*X*X*X*X1X*X*X*X1X*X*X*X1X*X*X*X*X*X*X*X*X*X",
"*X*X*X*X*X*X*X*X*X*X*X*X*X*X*X*X*X*X*X*X*X*X*X&X1X$X0.S H Q U / T k m m x m l m @.S j x l m m m x } o.Z 9 d m m m m S - j.1X*X*X*X*X*X*X*X*X*X*X&X*X*X*X&X*X*X*X*X*X*X*X*X*X*X*X*X*X",
"*X*X*X*X*X*X*X*X*X1X*X*X*X*X*X*X*X*X*X*X*X*X*X*X*X*X1X#X&X^.z J m m m m m m 9 @.>XG l B m m m m m t y S o./ k m m m A > ).3X*X*X*X*X*X*X*X*X*X*X1X*X*X*X1X*X*X*X*X*X*X*X*X*X*X*X*X*X",
"*X*X*X*X*X*X*X*X*X*X*X*X*X*X*X*X*X*X*X*X*X*X*X*X*X*X*X*X3X^.R <.m m m m m A & u.;X& B m m m m m k / e.e.3.Y l B m m M g .X1X*X*X*X*X*X*X*X*X*X*X*X*X*X*X*X*X*X*X*X*X*X*X*X*X*X*X*X*X",
"*X*X*X*X*X*X*X*X*X*X*X*X*X*X*X*X*X*X*X*X*X*X*X*X*X*X*X%X1Xv.R / m m m B m A o a.-X% A m m m m m k / } l a x x m m m x L @X1X*X*X*X*X*X*X1X*X*X*X*X*X*X*X1X&X1X*X1X*X*X*X*X*X*X*X*X*X",
"*X1X*X*X*X*X*X*X*X*X*X*X*X*X*X*X*X*X*X*X*X*X*X*X*X*X*X*X3Xz.  J m m m m m A X a.=X  A B m m m m m x J [ 3.$.k B m B u +.*X*X*X*X*X*X*X*X*X*X*X*X*X*X*X*X*X*X*X*X&X*X*X*X*X*X*X*X*X*X",
"*X*X*X*X*X*X*X*X*X*X*X*X*X*X*X*X*X1X*X*X*X*X*X*X*X*X*X&X3Xc.#.3.B m m m m A   a.=X  S m m m m A k ! u.5.o.U x m m A ; h.2X&X*X*X*X*X*X*X*X*X*X*X*X*X*X*X*X*X*X*X1X*X*X*X*X*X*X*X*X*X",
"*X*X*X*X*X*X*X*X*X*X*X*X*X*X*X*X*X*X*X*X*X*X*X*X*X*X*X*X2X0.. 5 g m m m m S X a.=X  A m m m m m v P ! u g U m m m A - ).3X&X*X*X*X*X*X*X*X*X*X*X*X1X&X1X*X*X*X*X*X*X*X*X*X*X*X*X*X*X",
"*X*X*X*X*X*X*X*X*X*X*X*X*X*X*X*X*X*X*X*X*X*X*X*X*X*X*X*X1X7.V @.A n m m m A X a.-X% A m m B m m m l Y o.<.5.A m m B l OX1X&X1X*X*X1X*X*X*X*X*X*X*X*X*X*X*X*X*X*X*X*X*X*X*X*X*X*X*X*X",
"*X1X*X*X*X*X*X*X*X*X*X*X*X*X*X*X*X*X*X*X*X*X*X*X*X*X*X*X1Xp.<.<.B m B m m S o a.:X8 B m m m m B x J e.5.e.<.G b Z g ) &X1X*X*X*X*X*X*X*X*X*X*X*X*X*X*X*X*X*X*X*X*X*X*X*X*X*X*X*X*X*X",
"*X*X*X*X*X*X*X*X*X1X*X*X*X*X*X*X*X*X*X*X*X*X*X*X*X*X*X*X&X+.t y g m m m m A % i.:Xp m m m m m m m G 3.@.Y j s m A : 0.2X&X*X*X*X*X*X*X*X*X*X*X*X*X*X*X*X*X*X*X*X*X*X*X*X*X*X*X*X*X*X",
"*X*X*X*X*X*X*X*X*X*X*X*X*X*X*X*X*X*X*X*X*X*X*X*X*X*X&X1X%X..[ $.A m m m m H & t.>Xk m B m m m B m Z G e l / T k F + ^.2X&X*X*X*X*X*X*X*X*X*X*X*X*X*X*X*X*X*X*X*X*X*X*X*X*X*X*X*X*X*X",
"*X*X*X*X*X*X*X*X*X*X*X*X*X*X*X*X*X*X*X*X*X*X*X*X*X*X&X2X@X,.e.e.J x M C m A 8 e.,Xm x m m B m m n k [ $.5.r.X.k A t |.2X*X*X*X*X*X*X*X*X*X*X*X*X*X*X*X*X*X*X*X*X*X*X*X*X1X*X*X*X*X*X",
"*X*X*X*X*X*X*X*X*X*X*X*X*X*X*X*X*X*X*X*X*X*X*X*X*X*X*X1X+X#.X.P x x x x m C 9 %.,XA x m m m m m b Z 5.e.<.#.! b b F $X1X*X*X*X*X*X*X*X*X*X*X*X*X*X*X*X*X*X*X*X*X*X*X*X*X*X*X*X*X1X*X",
"*X*X*X*X*X*X*X*X*X*X*X*X*X*X*X*X1X*X*X*X*X*X*X*X*X*X&X2X+Xb * G C x M x x C p @.<XT k B m m m m m B @.Y 5     m g ` 1X*X*X*X*X*X*X*X*X*X*X*X*X*X*X*X*X*X*X*X*X*X*X*X*X*X*X*X*X*X*X*X",
"*X*X*X*X*X*X*X*X*X*X*X*X*X*X*X*X*X*X*X*X*X*X*X*X*X*X&X2XOX! <.e.U x C x M M j / <X{ d A m m m B B b 6 6 S { $.Z > 7.2X&X*X*X*X*X*X*X*X*X*X*X*X*X*X*X*X*X*X1X*X*X*X*X*X*X*X*X*X*X*X*X",
"*X*X*X*X*X*X*X*X*X*X*X*X*X*X*X*X*X*X*X*X*X*X*X*X1X1X&X2X.X@.e.<.T x n n m C x J ,X$.9 A m m m m B j X.r.5.<.X.Z @ h.2X1X1X1X&X1X*X*X*X*X*X1X*X*X*X*X*X*X*X*X*X*X*X*X*X*X*X*X*X*X*X*X",
"*X*X*X*X*X*X*X*X*X*X*X*X1X*X*X*X*X*X*X*X*X*X*X*X&X1X&X1XoXI G , +.` a M m m m k >Xr.8 A m m m m m l { ! g 1 m B + z.3X&X1X&X&X1X*X*X*X*X*X*X*X*X*X*X*X*X*X*X*X*X*X*X*X*X*X*X*X*X*X*X",
"*X*X*X*X*X*X*X*X*X*X*X*X*X*X*X*X*X*X*X*X*X*X*X*X&X1X1X2XoX# S ~ p.q.> C m m C 8 ;Xa.o A m B m m B l k G ! X./ M ; ).2X&X1X&X1X1X*X*X*X*X*X*X*X*X*X*X*X*X*X*X*X*X*X*X*X*X*X*X*X*X*X*X",
"*X*X*X*X*X*X*X*X*X*X*X*X*X*X*X*X*X*X*X*X*X*X*X*X1X1X&X2X|.X.e.%.h._.2 A m m A   =Xb.  A m m m m m m m G G M m H g {.2X1X&X1X1X&X*X*X*X*X*X*X*X*X*X*X*X*X*X*X*X*X*X*X*X*X*X*X*X*X*X*X",
"*X*X*X*X*X*X*X*X*X*X*X*X*X*X*X*X*X*X*X*X*X*X*X*X&X1X&X2XoXX.3.#.p.XXm M A m A   m.m.  S A m B B m B B m g 3 , ;   }.2X&X1X1X1X&X*X*X*X*X*X*X*X*X*X*X*X*X*X*X*X*X*X*X*X*X*X*X*X*X*X*X",
"*X*X*X*X*X1X*X*X*X*X*X*X*X*X*X*X*X1X*X*X*X*X*X*X1X&X&X2X.XX.r.$.,.&X1.X 2 x A % u.P.% l : l l l l l l j ) 4.h.z._.$X1X1X1X&X1X1X*X*X*X*X*X*X*X*X*X*X*X1X*X*X*X*X*X*X*X*X*X*X*X*X*X*X",
"*X*X*X*X*X*X*X*X*X*X*X*X*X*X*X*X*X*X*X*X*X*X*X*X1X1X1X2X.XT G   M &X#X[.v.K 3 d f U   7.|.L $ d y d $ W %X2X3X2X2X1X1X&X1X&X&X1X*X*X*X*X*X*X*X*X*X*X*X*X*X*X*X*X*X*X*X1X*X*X*X*X*X*X",
"*X*X*X*X*X*X*X*X*X*X*X*X*X*X*X*X*X*X*X*X*X*X*X*X&X1X1X2X.X  Z } @.+X3X*X5Xp.  x u d   h.5X1.O k g k O 4.1X&X&X*X&X1X1X&X1X1X1X&X*X*X*X*X*X*X*X*X*X*X*X*X*X*X*X*X*X*X*X*X*X*X*X*X*X*X",
"*X*X*X*X*X*X*X*X*X*X*X*X*X*X*X*X*X*X*X*X*X*X*X*X*X*X&X2X.X} e.5.o.+X1X&X1X[.O k d b . 2.3X0.  l a l   h.2X*X*X*X*X*X*X*X*X*X*X*X*X*X*X*X*X*X*X*X*X*X*X*X*X*X1X*X*X*X*X*X*X*X*X*X*X*X",
"*X*X*X*X*X*X*X*X*X*X*X*X*X*X1X*X*X1X*X*X*X*X*X*X*X*X1X1XoXX.<.e.#..X2X%X1X#XH r g j + O.4Xv.  k a l   c.3X&X*X*X*X*X*X*X*X*X*X*X*X*X*X*X*X*X*X*X1X*X*X*X*X*X*X*X*X*X*X*X*X*X*X*X*X*X",
"*X*X*X*X*X*X*X*X*X*X*X*X*X*X*X*X1X&X*X*X*X&X1X*X1X&X*X1XOX$.<...h {.3X*X*X2X7.. l g : Q 1X[.  k g k   ).2X*X*X*X*X*X*X*X*X*X*X*X*X*X*X*X*X*X*X*X*X*X*X*X*X*X*X*X*X*X*X*X*X1X*X*X*X*X",
"*X*X*X*X*X*X*X*X*X*X*X*X*X*X*X*X*X*X*X*X*X1X*X*X1X1X1X1X@X{ 6   i }.1X*X&X3X(.  l g 3 H *XoX, j g g < .X2X*X*X*X*X*X*X*X*X*X*X*X*X*X*X*X*X*X*X*X*X*X*X*X*X*X*X*X*X*X*X*X*X*X*X*X*X*X",
"*X*X*X*X*X*X*X*X*X*X*X*X*X*X*X*X*X*X*X*X*X*X1X*X&X1X&X1X$XF G <.%.}.2X1X&X1X+Xj a g u k #X$Xm y j t M @X*X&X*X*X*X*X*X*X*X*X*X*X*X*X*X*X*X*X*X*X*X*X*X*X*X*X*X*X*X*X*X*X*X*X*X*X*X*X",
"*X*X1X*X*X*X*X*X*X*X*X*X*X*X*X*X*X1X*X*X*X1X&X*X&X1X&X1X&X6.e.3.I ).1X1X*X*X1X>.+ k g < .X1X( @ l @ _ *X*X*X*X*X*X*X*X*X*X*X*X*X*X*X*X*X*X*X1X*X*X*X*X*X*X*X*X*X*X*X*X*X*X*X*X*X*X*X",
"*X*X*X*X*X*X*X*X*X*X*X*X*X*X*X*X1X&X*X*X*X*X*X*X1X*X*X1X1X6.V n O x.2X1X*X&X2Xc.  k j O {.3X:.O b . 2.2X&X*X*X*X*X*X*X*X*X*X*X*X*X*X*X*X*X*X*X*X*X*X*X*X*X*X*X*X*X*X*X*X*X*X*X*X*X*X",
"*X*X*X*X*X*X*X*X*X*X*X*X*X*X*X*X*X*X*X*X*X*X*X*X*X*X*X&X2Xh.= #.@.k.1X1X1X1X1XoXt g v   v.4X4.  m   q.2X&X*X*X*X*X*X*X*X*X*X*X*X*X*X*X*X*X*X*X*X*X*X*X*X*X*X*X*X*X*X*X*X*X*X*X*X*X*X",
"*X*X*X*X*X*X*X*X*X*X*X*X*X*X*X*X*X*X*X*X*X*X*X*X1X1X1X&X1X&X/.9.X.l.1X*X1X*X*X1XO.+ n   k.4X0.  M   c.3X&X*X*X*X*X*X*X*X*X*X*X*X*X*X*X*X*X*X*X*X*X*X*X*X*X*X*X*X*X*X*X*X*X*X*X*X*X*X",
"*X*X*X*X*X*X*X*X*X*X*X*X*X1X*X*X*X1X*X*X*X*X*X*X&X&X1X*X*X1X2X*X&X&X*X*X*X*X&X3Xl.  m   4.4Xh.  m   _.2X&X*X*X*X*X*X*X*X*X*X*X*X*X*X*X*X*X*X*X*X*X*X*X*X*X*X*X*X*X*X*X*X*X*X1X*X*X*X",
"*X*X*X*X*X*X*X*X*X*X*X*X*X*X*X*X1X&X*X*X*X&X1X*X1X1X*X*X1X&X&X*X*X*X*X*X*X*X*X1X|.; l - ) 2Xk.  b + |.2X&X1X*X*X*X*X*X*X*X*X*X*X*X*X*X*X*X*X*X*X*X*X*X*X*X*X1X*X*X*X*X*X*X*X*X*X*X*X",
"*X*X*X*X*X*X*X*X*X*X*X*X*X*X*X*X*X*X*X*X*X1X*X*X1X&X*X*X*X1X*X*X&X*X*X*X*X*X*X1X%X( , u F 1Xz.  k g +X2X&X*X*X*X*X*X*X*X*X1X*X*X*X*X*X*X*X*X*X*X*X*X*X*X*X*X*X*X*X*X*X*X*X*X*X*X*X*X",
"*X*X*X*X*X*X1X*X*X*X*X*X*X*X*X*X*X*X*X*X&X1X1X1X&X&X1X1X*X*X*X*X*X*X*X*X*X*X*X*X2Xj.  l t $X(.  g A @X1X*X*X*X*X*X*X*X*X*X*X*X*X*X*X*X*X*X*X*X*X*X*X*X*X*X*X*X*X*X*X*X*X*X*X*X*X*X*X",
"*X*X*X*X*X*X*X*X*X*X*X*X*X*X*X*X*X1X*X*X1X1X&X&X1X1X1X&X*X*X*X*X*X*X*X*X*X*X*X&X2X[.. b   .X_.  u Q &X1X*X*X*X*X*X*X*X*X*X*X*X*X*X*X*X*X*X*X*X*X*X*X*X*X*X*X*X*X*X*X*X*X*X*X*X*X*X*X",
"*X*X*X*X*X*X*X*X*X*X*X*X*X*X*X*X1X&X*X*X1X&X&X1X*X*X1X&X*X*X*X*X*X*X*X*X*X*X*X*X*X&XK a   ).[.  r ` 1X*X*X*X*X*X*X*X*X*X*X*X*X*X*X*X*X*X1X*X*X*X*X*X*X*X*X*X*X*X*X*X*X*X*X*X*X*X1X*X",
"*X*X*X*X*X*X*X*X*X*X*X*X*X*X*X*X*X*X*X*X*X1X1X*X*X*X*X1X*X*X*X*X*X*X*X*X*X*X*X*X*X2X7.+   z.[.  - >.1X&X*X*X*X*X*X*X*X*X*X*X*X*X*X*X*X*X*X*X*X*X*X*X*X*X*X*X*X*X*X*X*X*X*X*X*X*X*X*X",
"*X*X*X*X*X*X*X*X*X*X*X*X*X*X*X*X*X*X*X*X*X*X*X*X*X1X*X*X*X1X*X*X*X*X*X*X*X*X*X*X*X3X^.. . 0.[.. + 7.1X1X*X*X*X*X*X*X*X*X*X*X*X*X*X*X*X*X*X*X*X*X*X*X*X*X*X*X*X*X*X*X*X*X*X*X*X*X*X1X",
"*X*X*X*X*X*X*X*X*X1X*X*X*X*X*X*X*X*X*X*X*X*X*X*X1X&X*X*X1X&X*X*X*X*X*X*X*X*X*X*X*X1XoXu . >.'.+   q.2X*X*X*X*X*X*X*X*X*X*X*X*X*X*X*X*X*X*X*X*X*X*X*X*X*X*X*X*X*X*X*X*X1X*X*X*X*X*X*X",
"*X1X*X*X*X*X*X*X1X&X*X*X*X*X*X*X*X*X*X*X*X*X&X1X*X*X*X*X*X*X*X*X*X*X*X*X*X*X*X*X*X1X&X^   _ (.<   k.3X&X*X1X*X*X*X*X1X*X*X*X*X*X*X*X*X*X*X*X*X*X*X*X*X*X*X*X*X*X*X*X*X*X*X*X*X*X*X*X",
"*X*X*X*X*X*X*X*X*X*X*X*X*X1X*X*X*X*X*X*X*X*X1X*X*X*X*X*X*X*X*X*X*X*X*X*X*X*X*X*X*X*X2X7.  W l.r   c.3X&X*X*X*X*X*X*X*X*X*X*X*X*X*X*X*X*X*X1X*X*X*X*X*X*X*X*X*X*X*X*X*X*X*X*X*X*X*X*X",
"*X*X*X*X*X*X*X*X*X*X*X*X*X*X1X*X*X*X*X*X*X*X*X*X*X*X*X*X*X1X*X*X*X*X*X*X*X*X*X*X*X*X3Xl.  H h.u   ^.3X&X*X*X*X*X*X*X*X*X*X*X*X*X*X*X*X*X*X*X*X*X*X*X*X*X*X*X*X*X*X*X*X*X*X*X*X*X*X*X",
"*X*X*X*X*X*X*X*X*X1X*X*X*X1X&X*X*X*X*X*X*X*X*X*X*X*X*X*X1X&X*X*X*X*X*X*X*X*X*X*X*X&X2X).  A 7.d   '.2X*X*X*X*X*X*X*X*X*X*X*X*X*X*X*X*X*X*X*X*X*X*X*X*X*X*X*X*X*X*X*X*X*X*X*X*X*X*X*X",
"*X*X*X*X*X*X*X*X1X&X*X*X*X*X*X*X*X*X*X*X*X*X*X*X*X*X&X1X*X*X*X*X1X*X*X*X*X*X*X*X*X&X1X|.+ l >.g + |.3X&X*X*X*X*X*X*X*X*X*X*X*X*X*X*X*X*X*X*X*X*X*X*X*X*X1X*X*X*X*X*X*X*X*X*X*X*X*X*X",
"*X*X*X*X*X*X*X*X*X*X*X*X*X*X*X*X*X*X*X*X*X*X*X*X*X*X1X*X*X*X*X*X*X*X*X*X*X*X*X*X*X*X1X@Xj u >.g 1 .X1X*X*X*X*X*X*X*X*X*X*X*X*X*X*X*X*X*X*X*X*X*X*X*X*X*X*X*X*X*X*X*X*X*X*X*X*X*X*X*X",
"*X*X*X*X*X*X1X*X*X*X*X*X*X*X*X*X*X*X*X*X*X*X*X*X*X1X*X*X*X*X*X*X*X*X*X*X*X*X*X*X*X*X*X$XK 2 ^ d g OX1X1X*X*X*X*X*X*X*X*X*X*X*X*X*X*X*X*X*X*X*X*X*X*X*X*X*X*X*X*X*X*X*X*X*X*X*X*X*X*X",
"1X*X*X*X*X*X*X*X*X*X*X*X*X1X*X*X1X*X*X*X1X*X*X*X*X*X*X*X*X*X*X*X*X*X*X*X*X*X*X*X*X*X*X&X^ : 1 y Z @X1X&X*X*X*X*X*X*X*X*X*X*X*X*X*X*X*X*X*X*X*X*X*X*X*X*X*X*X*X*X*X*X*X*X1X*X*X*X*X*X",
"*X*X*X*X*X*X*X*X*X*X*X*X1X&X*X*X&X1X*X*X&X1X*X*X*X*X*X*X*X*X*X*X*X*X*X*X*X*X*X*X*X*X*X*X` - j r F @X1X1X*X*X*X*X*X*X*X*X*X*X*X*X*X*X*X*X*X*X*X*X*X*X*X*X*X*X*X*X*X*X*X*X*X*X*X*X*X*X",
"*X*X*X*X*X*X*X*X*X*X*X*X*X*X*X*X*X*X*X*X*X*X*X*X*X*X*X*X*X*X*X*X*X*X*X*X*X*X*X*X*X*X*X1XO.. k < K &X1X&X*X*X*X*X*X*X*X*X*X*X*X*X*X*X*X*X*X*X*X*X*X*X*X*X*X*X*X*X*X*X*X*X*X*X*X*X*X*X",
"*X*X*X*X*X*X*X*X*X*X*X*X*X*X*X*X*X*X*X*X*X1X&X*X*X*X*X*X*X*X*X*X*X*X*X*X*X*X*X*X*X*X*X*X_.y e , ^ &X1X*X*X*X*X*X*X*X*X*X*X*X*X*X*X*X*X*X*X*X*X*X*X1X*X*X*X*X*X*X*X*X*X*X*X*X*X*X*X*X",
"*X*X*X*X*X*X*X*X*X*X*X*X*X*X*X*X*X*X*X*X*X*X1X*X1X*X*X*X*X*X*X*X*X*X*X*X*X*X*X*X*X*X&X3X.X  ` 1 4.1X*X*X*X*X*X*X*X*X*X*X*X*X*X*X*X*X*X*X*X*X*X*X*X*X*X*X*X*X*X*X*X*X*X*X*X*X*X*X*X*X",
"*X*X*X*X*X*X*X*X*X*X*X*X*X*X*X*X*X1X*X*X*X*X*X*X&X1X*X*X*X*X*X*X*X*X*X*X*X*X*X*X*X&X1X*X_   W   7.1X*X*X*X*X*X*X*X*X*X*X*X*X*X*X*X1X*X*X*X*X*X*X*X*X*X*X*X*X*X*X*X*X*X*X*X*X*X*X*X*X",
"*X*X*X*X*X*X*X*X*X*X*X*X*X*X*X*X*X&X1X*X*X*X*X*X*X*X*X*X*X*X*X*X*X*X*X*X*X*X*X*X*X3X%X4.        M $X1X*X*X*X*X*X*X*X*X*X*X*X*X*X*X*X*X*X*X*X*X*X*X*X*X*X*X*X*X*X*X*X*X*X*X*X*X*X*X*X",
"*X*X*X1X*X*X*X*X*X*X*X*X*X*X*X*X*X*X*X*X*X*X*X*X*X*X*X*X*X*X*X*X*X*X*X*X*X*X*X1X*X^.j   K 2.7.W   v.4X*X*X*X*X*X*X*X*X*X*X1X*X*X*X*X*X*X*X*X*X*X*X*X*X*X*X*X*X*X*X*X*X*X*X*X*X*X*X*X",
"*X*X*X&X*X*X*X*X1X*X*X*X*X*X*X*X*X*X*X*X*X*X*X*X*X*X*X*X*X*X*X*X*X*X*X*X*X*X1X.XO.H 7.(.#X1X*X$X2.  .X1X&X*X*X*X1X*X*X*X*X&X1X*X*X*X*X*X*X*X*X*X*X*X*X*X*X*X*X*X*X*X*X*X*X*X*X1X*X*X",
"*X*X*X1X*X*X*X*X&X1X*X*X*X*X*X*X1X*X*X*X*X*X*X*X*X*X*X*X*X*X*X*X*X*X*X*X*X*X*X@X+X*X2X3X*X*X*X*X1Xv./.1X*X1X*X*X&X1X*X*X*X*X*X*X*X*X*X*X*X*X*X*X*X*X*X*X*X*X*X*X*X*X*X*X*X*X*X*X*X*X"
};
