/* XPM */
static char *_f3dd20ebdc84f3a88071179201018e7e2qZfOotbIAk5JS6[] = {
/* columns rows colors chars-per-pixel */
"90 83 233 2 ",
"   c #000000",
".  c #00030B",
"X  c #02080A",
"o  c #020616",
"O  c #010B14",
"+  c #020E19",
"@  c #021016",
"#  c #02101D",
"$  c #030E26",
"%  c #031624",
"&  c #04142A",
"*  c #000039",
"=  c #051637",
"-  c #082136",
";  c #000042",
":  c #01004C",
">  c #071945",
",  c #010156",
"<  c #080655",
"1  c #090B56",
"2  c #00005B",
"3  c #030A59",
"4  c #140C52",
"5  c #061758",
"6  c #091359",
"7  c #0B1C5D",
"8  c #151A59",
"9  c #0A234A",
"0  c #0F354D",
"q  c #0D2759",
"w  c #17255F",
"e  c #1C245C",
"r  c #29285C",
"t  c #000162",
"y  c #000B63",
"u  c #000068",
"i  c #001464",
"p  c #001B65",
"a  c #041968",
"s  c #001D69",
"d  c #001E76",
"f  c #002366",
"g  c #0D2463",
"h  c #0E2A65",
"j  c #002469",
"k  c #032A6A",
"l  c #0C2E6A",
"z  c #112D66",
"x  c #192B65",
"c  c #102E69",
"v  c #0F306C",
"b  c #143266",
"n  c #12326C",
"m  c #1A366D",
"M  c #1D396F",
"N  c #002779",
"B  c #093674",
"V  c #133671",
"C  c #143973",
"Z  c #163A77",
"A  c #1E3A70",
"S  c #252B61",
"D  c #233A6D",
"F  c #213C71",
"G  c #293D71",
"H  c #274353",
"J  c #194C6F",
"K  c #19457C",
"L  c #39476E",
"P  c #234075",
"I  c #28457A",
"U  c #344B7A",
"Y  c #38517E",
"T  c #404C6E",
"R  c #001695",
"E  c #143B86",
"W  c #003493",
"Q  c #1A4A85",
"!  c #1D558A",
"~  c #034B96",
"^  c #1C5793",
"/  c #274E89",
"(  c #3C5582",
")  c #3D5B87",
"_  c #215B96",
"`  c #25649D",
"'  c #36679D",
"]  c #164BB3",
"[  c #0462A7",
"{  c #0C6EB5",
"}  c #266AA7",
"|  c #2872AD",
" . c #2974B3",
".. c #2C7BBC",
"X. c #3579B3",
"o. c #435C83",
"O. c #4B5B83",
"+. c #4B648A",
"@. c #4C668B",
"#. c #546A8D",
"$. c #546E90",
"%. c #5A7595",
"&. c #5C7898",
"*. c #616D8E",
"=. c #647C97",
"-. c #6B7893",
";. c #4C78AC",
":. c #027CC6",
">. c #317CC4",
",. c #2E82BC",
"<. c #67829E",
"1. c #74859D",
"2. c #6985A2",
"3. c #6887A6",
"4. c #6D8AA5",
"5. c #758FA8",
"6. c #7493AC",
"7. c #7997AD",
"8. c #7595B5",
"9. c #7C9BB3",
"0. c #0C87D2",
"q. c #2F83C5",
"w. c #3285C2",
"e. c #3086CA",
"r. c #318ACC",
"t. c #3989CA",
"y. c #3590CD",
"u. c #348DD2",
"i. c #3592D6",
"p. c #3695DC",
"a. c #3A97DC",
"s. c #1499E8",
"d. c #289BE7",
"f. c #3A9CE4",
"g. c #3A9FE9",
"h. c #02A8FD",
"j. c #1AACFF",
"k. c #3CA3EC",
"l. c #24ABFF",
"z. c #2CACFF",
"x. c #3DA7F2",
"c. c #35A8F6",
"v. c #3EA9F4",
"b. c #33AEFE",
"n. c #3DAEFC",
"m. c #35B2FF",
"M. c #3DB2FF",
"N. c #4C90CF",
"B. c #6698CE",
"V. c #7195CB",
"C. c #6D93D0",
"Z. c #7AA4D1",
"A. c #4BA0E2",
"S. c #41A5ED",
"D. c #42AAF4",
"F. c #46ABF5",
"G. c #40AFFC",
"H. c #43B3FF",
"J. c #4AB4FE",
"K. c #47BAFF",
"L. c #56B7FD",
"P. c #5BB8FD",
"I. c #74B7EB",
"U. c #67BDFC",
"Y. c #6EC0FD",
"T. c #75C2FB",
"R. c #7AC5FB",
"E. c #7FCAFF",
"W. c #9095A7",
"Q. c #829FB5",
"!. c #84A5BB",
"~. c #88A7BB",
"^. c #9EA4B4",
"/. c #A3AAB8",
"(. c #8CADC2",
"). c #8EB0C5",
"_. c #93B5C9",
"`. c #94B6C9",
"'. c #99BCCE",
"]. c #85ABDA",
"[. c #8DB3DD",
"{. c #98BDD4",
"}. c #ADB8C6",
"|. c #8EBCE2",
" X c #9DC1D3",
".X c #A1C5D6",
"XX c #A3C7D7",
"oX c #ADC9D5",
"OX c #A5CADB",
"+X c #A9CEDD",
"@X c #ABD0DD",
"#X c #94C7EB",
"$X c #83C6F8",
"%X c #84CAFB",
"&X c #8CCDFA",
"*X c #92CEFA",
"=X c #95D3FB",
"-X c #9BD5F9",
";X c #9BD6FB",
":X c #A5CDE5",
">X c #ADD3E3",
",X c #AAD4EC",
"<X c #B2D8E6",
"1X c #B2D9E6",
"2X c #B4DCEA",
"3X c #ABDDF6",
"4X c #A3DAF8",
"5X c #A6DAF8",
"6X c #B5DEF0",
"7X c #B7E0EE",
"8X c #BAE2EF",
"9X c #ADE2FB",
"0X c #B4E2F6",
"qX c #BCE6F3",
"wX c #BFE9F5",
"eX c #B8E8FA",
"rX c #CED1D9",
"tX c #C2EBF5",
"yX c #C0EAF6",
"uX c #CDEAF6",
"iX c #C2EDF9",
"pX c #C3EEF9",
"aX c #C4EFFA",
"sX c #D8EBF5",
"dX c #C5F0FB",
"fX c #CAF2FB",
"gX c #D9F1F6",
"hX c #E8EAED",
"jX c #E7EDF3",
"kX c #EBF7FA",
"lX c #F5F5F6",
"zX c #F8F8F7",
"xX c #FDFDFB",
/* pixels */
"wXwXwXwXyXwXwXwXwXwXwXyXwXwXwXwXwXwXtXwXwXwXwXwXwXwXyX#X>XtXyXyXqXyXyXyXwXyXyXqXyXwXyXyXwXqXyXyXqXyXyXyXwXwXwXwXwXwXwXwXwXwXwXwXwXwXwXwXwXwXwXwXwXwXwXwXwXwXwXwXwXwXwXwXwXwXwXwXwXwX",
"wXwXwXwXwXwXwXwXwXwXwXwXwXwXwXwXwXwXwXwXwXwXwXwXwXwXtXV.#XtXqXyXqXyXqXqXqXqXyXyXyXdX0X:XiXyXqXyXqXqXyXqXwXwXwXwXwXwXwXwXwXwXwXwXwXwXwXwXwXwXwXwXwXwXwXwXwXwXwXwXwXwXwXyXwXwXwXwXwXwX",
"yXwXwXwXwXwXwXwXwXwXwXwXwXwXwXwXwXwXwXwXwXwXwXwXwXwXyXtXyXwXyXqXqXwXiXdXiXiXqX0X2X<X:X{.2X8XyXiXiXiXaXyXwXqXwXwXwXwXwXwXwXwXwXwXwXwXwXwXwXwXwXwXwXwXwXwXyXwXwXwXwXwXwXwXwXwXwXwXwXwX",
"wXwXwXwXwXwXwXwXwXwXwXwXwXwXwXwXwXwXwXwXwXwXwXwXwXyXyXyXwXqXwXtXdXyX>X'.Q.=.+.Y P k m U I Y @.<.Q.'.>XqXiXaXyXyXwXwXwXwXwXwXwXwXwXwXwXwXwXwXwXwXwXwXyXwXwXwXwXwXwXwXwXwXwXwXwXwXwXwX",
"wXwXwXwXwXwXwXwXwXwXwXwXwXwXwXyXwXwXwXwXwXwXwXwXtXwXwXwXwXdXyX>X!.#.k 2 2 2 i f l n l k k j y 2 2 2 j +.6. X8XdXaXwXqXtXwXwXwXyXyXyXyXwXwXwXwXwXwXwXwXwXwXyXwXwXwXwXwXwXwXwXwXwXwXwX",
"wXwXwXwXwXwXwXwXyXwXwXwXwXwXwXwXwXwXwXwXwXwXwXwXwXqXwXiXqX'.&.a , y n A F M M n b n n n n m m A D M n a , 2 U 6.XXyXdXyXwXwXwX0X%XqXyXwXwXwXwXwXwXwXwXwXwXtXwXwXwXyXwXwXwXyXwXwXwXwX",
"wXwXwXwXyXwXwXwXwXwXwXwXwXwXwXwXwXwXwXwXwXwXwXwXqXyXyX'.@.2 2 n F m n n n n n n n n n n n n c n n n n m A M j 2 2 #.`.8XaXwXwX4XP.0XwXwXwXwXwXwXwXwXwXwXwXwXwXwXwXwXwXwXwXwXwXwXwXwX",
"wXwXwXwXwXwXwXwXwXwXwXwXwXwXwXwXwXwXwXwXyXwXwXwXdX>X&.2 i F M n n n n l n m A F M m m l n m A A A M n n v n m M A 2 , Y ).8XdXyXwXwXwXwXwXwXwXwXwXwXwXwXwXwXwXwXwXwXwXwXwXwXwXwXwXwX",
"wXwXwXwXwXyXwXwXwXwXwXwXwXwXwXwXwXwXwXwXwXwXyXyX~.a 2 F m l c n l n A F n i 2 , 2 i W V c p 2 2 2 2 k D F n n n v Z F f , ( _.wXdXwXwXwXwXwXwXwXqXwXwXwXwXwXwXyXwXwXwXwXwXwXwXwXwXwX",
"wXwXwXwXwXwXwXwXwXwXwXwXyXwXwXwXyXwXwXwXwXiX2X=., V A l n n n n A m t , j @.6.).XX+X:X,X<X>XXX_.9.&.I 2 2 k M m q ] E b F f , #.OXtXwXqXwXwXwXiXaXwXwXwXwXwXwXwXwXwXwXwXyXwXwXwXwXwX",
"wXwXwXwXwXwXwXwXwXwXwXwXwXwXwXqX3XwXyXqXdX:X) ~ F n n n n v M m 2 2 $.(.>XqXtXdXiXiXiXiXiXiXaXdXdXyX2XXX6.I 2 i F m v n n n F t t 7.8XdXqXwXyX,XC.qXyXwXwXwXwXwXyXwXwXwXwXwXwXwXwXwX",
"wXyXwXwXwXwXwXwXwXwXwXwXwXwXtX4XM.qXwXdXXX3 [ S.V c n n n F 2 t 2.OXwXdXiXwXyXqXyXqXyXqXqXyXqXqXwXwXyXdXtX2X).+., p F n n n v A m , o.OXdXwXwX2XC.2XyXwXwXwXwXwXwXwXwXwXwXwXwXwXwXwX",
"wXwXwXwXwXwXwXwXwXwXwXwXwXwXyXqX0XqXiXXXa j A C n n l A l 2 %.OXiXaXwXqXwXwXwXwXqXyXyXyXqXyXyXyXwXwXqXqXqXyXdXqX_.o., n M v n n n F i t ).dXwXwXaXwXwXwXwXwXwXwXwXwXwXwXwXwXwXwXwXwX",
"wXwXwXwXwXwXwXwXwXwXwXwXyXwXwXwXyXdXOXs k A l z n l F 2 V ).yXaXwXqXwXyXwXwXwXqXyXqXqXyXqXqXqXyXwXwXwXwXyXqXqXyXiX0X~.f t F l n n v M m , 6.wXwXqXwXwXwXwXwXwXwXwXwXwXwXyXwXwXwXwXwX",
"wXwXwXwXwXwXwXwXwXwXwXwXwXwXwXqXiX>XA f m v n n n F 2 $.<XaXyXqXwXwXqXyXyXwXtXtXyXuXyXyXtXtXtXtXyXyXwXwXyXwXyXyXqXyXdX>X$., D n l n v n F , 2.qXyXwXwXwXwXwXwXwXwXwXwXwXwXwXwXwXwXyX",
"wXwXwXwXwXwXwXwXwXwXwXwXwXwXwXwX8X+.t A v n n n M 2 6.yXiXqXqXyXwXyXyXyXqX0X3X4X*X*X&X&X*X=X-X3X0XqXyXyXyXqXqXqXyXyXqXiXqX9.2 n m v n n n P , &.wXwXwXwXwXwXwXwXwXwXwXwXwXwXwXwXwXwX",
"wXwXwXwXwXwXwXwXwXwXwXwXwXyXwXaX4.2 F l C V n m 2 ~.dXyXqXyXyXyXqX3X=XT.P.H.b.z.l.l.l.l.l.l.z.b.H.P.R.-X0XyXyXyXqXyXqXqXyXdX_.2 l m c n v v P 2 2.yXyXwXwXwXwXwXyXwXyXqXwXwXyXwXwXwX",
"wXwXwXwXwXwXwXwXwXwXwXwXwXqXdX_., F n n l n A 2 ).dXqXyXyXqX4X$XL.b.l.z.M.H.H.H.K.J.J.H.J.H.K.H.H.m.z.l.H.T.4XqXyXyXqXtXqXqXdX Xa k m v n n l F , 7.iXwXwXwXwXwXwXwXwXyXwXwXwXwXwXwX",
"yXwXwXwXwXwXwXwXwXwXwXwXwXyX2Xm l n n n n A 2 (.dXqXyXqX=XP.z.z.m.H.H.F.S.f.u.e... .| | |  ...r.p.k.F.J.H.z.z.U.4XtXtXtXwXwXqXdXXXp n n v n n n F u '.iXqXtXwXwXwXwXwXwXwXwXyXwXwXwX",
"wXwXwXwXwXwXwXyXwXwXwXwXqXaX3.2 A v n v F , 9.iXqXtX3XP.l.m.J.H.g.w.} Q n 7 1 < < 1 1 6 6 1 < < 6 h Q } u.D.J.m.z.R.0XtXwXwXyXyXdX{.2 m n n n q _ i.l >XyXwXwXwXwXwXwXwXwXwXqXyXwXwX",
"wXwXwXwXwXwXwXwXwXwXwXqXaX X2 A n n v D 2 =.wXwXyX*Xz.m.K.v.q.! g < 6 z c V V V V C C C V V C C V n z 6 < C | g.H.z.L.3XyXqXyXwXqXdX(.2 D n n n V / 2 &.yXyXwXwXwXwXwXwXwXwXwXwXwXwX",
"wXwXwXwXwXwXwXwXwXwXwXyXwX#.y m v n n k I 2XiXyX%Xj.K.S...V < g n V V n n l V c h 9 > = = = = > 9 h n C V l 1 g  .F.m.m.4XyXwXwXwXwXiX4.2 F l n h g F , '.dXqXtXwXwXwXwXwXwXwXwXwXwX",
"wXwXwXwXwXwXwXwXwXyX,XqX{.2 F n n n M 2 '.dXwX$Xl.J.e.V < l V n n V h k V h 9 $                     $ 9 z V C V 1 K f.H.z.4XyXwXwXqXyX7XY f n V E n n p o.0XyXyXyXwXwXqXwXwXwXwXyXqX",
"wXwXwXyXwXwXwXwXqXaXZ.].=.2 m v v M 2 2.aXyX&Xj.S._ , n n n v V l : P / > X         . .   .   . .       . 9 l n V h 7 i.H.b.4XyXwXyXqXdX{.2 M C ] B n F , _.dXqXwXwXwXyXwXwXyXwXwXyX",
"wXwXwXwXwXwXwXwXwXwXwX{.2 A c n n n k >XdX=Xj.N.v q V n v v n < C q.N.H   X .                         .     % g V n n 7 a.H.c.:XyXwXwXwXwX&.t M l n n m i @.qXyXwXwXyXqXyXwXyXqXwXyX",
"wXwXwXyXwXwXwXwXwXyXiX2.2 A n n F 2 9.fX3Xm.I.e k C n v V g g  .G.y.    O                                 .     q V n c V k.M.k.<XiXwXqXdX X2 A n n n l D t XXiXqXwXwXwXwXwXwXyXwXwX",
"wXwXwXwXwXwXwXwXwXiX>Xj n n n n l v <XyXJ.-X1.2 A l n V q K a.K.w.    #                                     .     q n V 6 ` J.b.B.wXwXyXwXwX$.t A n n n A 2 7.iXqXyXwXwXwXwXwXwXqXyX",
"wXwXwXwXwXwXwXwXqXdX~., F v n A 2 6.fXT.-X@Xt A n n V 6 _ v.K.y.  # O                                               q n V 6 i.K.s.(.iXyXwXdX)., F l n n V 5 o.qXyXwXwXwXwXwXwXyXyXwX",
"wXwXwXwXwXwXwXwXwXwX$.t M n n m t @X5X%XfX<.2 F n V 6 ` G.H.k.    O                                                 o c V q ^ H.H.w.<XtXqXaX<Xm l n n n c E R >XaXqXqXyXwXwXwXwXwXwX",
"wXwXwXwXwXwXwXwXiX>Xj n n n m t %.qX&XdX>Xj n n n 7 ^ H.H.H.!   %                                                 .   = n n a f.K.s.!.tXqXwXyX&.t A c n h ^ u _.aXqXyXwXwXwXwXwXwXwX",
"wXwXwXyXwXwXwXqXdX_., F n v F , ~.4X0XdX!., A n h K v.H.H.i.  %                                                         q V < ..H.M.X.2XwXwXaX!.2 F n n v D , 9.aXqXwXwXwXwXwXwXwXwX",
"wXwXwXwXwXwXwXwXiX4.2 A V n n z :XeXyXqX@.i m n g f.H.n.H.J   #                                                     .   = V q _ n.J.0.).dXqXiXXX2 A l n l A t =.yXyXwXwXwXwXwXwXwXwX",
"wXwXwXwXwXwXwXyX8Xo.a n 1 m i @.0XwXiX>Xp n V < ..J.n.H.f.  +                                                             l c C x.H.d.2.iXqXyX>Xv v n v n n j Y qXyXwXwXwXwXwXwXwXwX",
"wXwXwXwXwXwXwXiX>Xk n Z | P , 9.iXqXiX(.2 F g Q v.M.H.K.|   %                                                         .   9 A a f.K.m.' 2XgXlXsX( j b n n n b j >XuXwXwXwXwXwXwXwXwX",
"wXwXwXwXyXwXqXiXXX2 m K u.K , '.dXqXiX4.2 F < u.K.n.H.M.J   +                                                             = V 1 i.H.H.[ oXxXzXlX*.u M n n n M 2  XdXqXwXwXwXwXwXwXyX",
"wXwXwXwXwXwXwXdX!., F c 6 n j >XyXwXqX@.s x ! n.H.M.H.v.-   o                                                             + n < r.H.H.{ /.xXxXxX1.2 D n n n M 2 _.dXqXwXwXwXwXwXwXqX",
"wXwXwXwXwXwXqXeX7.2 F n A f Y 8XyXyX2XF v 6 r.H.n.G.H.f.  X .                                                               n < e.H.K.0.6.kXuXgXW., F l n n F , (.dXqXwXwXwXwXwXqXyX",
"wXwXwXwXwXyX0X3X<.2 M n M 2 &.tXwXyX+Xi b C v.H.G.H.K.p.  +                                                                 c 1 e.H.H.0.2.dXU.-XW.2 G l n n M , !.dXqXwXwXwXwXwXyXwX",
"wXwXwXwXwXwXyXtX#.y m n F 2 6.tXqXdX Xt e | H.H.H.G.H.,.  %                                                                 z 6 u.H.J.0.-.dXqXiX6., F n n n F 2 !.iXwXwXwXwXwXwXwXwX",
"wXwXwXwXwXwXwXeXo.5 m n M 2 ~.dXqXdX_.2 e i.H.n.H.M.k.5   X                                                                 h g f.J.J.0.=.wXwXdX4.2 D v n l F , ).dXqXwXwXwXwXwXwXwX",
"wXwXwXwXwXwXwX0X( W m v M , _.dXqXiX(., P x.H.H.H.H.^ 1 @                                                             .   X g K k.H.K.:.=.yXwXwX<.2 M n n n m 3 8.0XyXtXwXwXwXwXwXyX",
"wXwXwXwXwXwXyX8XY N m b M 2  XdXqXaX(.; } H.H.n.H.i.6 n X                                                                 & 5 ` H.H.K.[ 1.yXwXwX$.t m v v n V k V.,XyXqXwXwXwXwXyXqX",
"wXwXwXyXwXwXyX8XU f M n m t XXdXqXdX(.* w.H.G.G.H.| 6 V &                                                                 > < r.H.M.K.W !.dXwX8X( f m n n n b t >XdXwXwXwXwXyXqXwXwX",
"wXwXwXwXwXwXwX8X( f m n m 2 OXdXqXaX_.* a.H.n.H.M.! g V >   .                                                         .   > K v.H.H.S.2 _.dXwX<XM l n n n n j U 2XtXwXwXwXyXwXyXyXwX",
"wXwXwXwXwXwXwXqXo.a n n C d +XiXqXaX'.2 S.H.G.H.k.V v n w   .                                                           # ; e.H.G.H.u.: >XyXiXXXt m n n n m t %.yXtXyXyXyXqXqXyXwXwX",
"wXwXwXwXwXwXwXqX#.y M b ] W @XiXqXiXXXj F.H.M.H.f.7 n n n &                                                           O   ! M.H.H.J.~ +.wXqXaX(.2 D v n v A , !.iX8X9XwXyXyXyXyXwXwX",
"wXwXwXwXwXwXqXyX=.u D n E d >XiXqXiX>X^ G.H.G.H.i.1 V n n q   +                                                     +   > k.H.G.H.f.; ~.fXuXfX4.2 A n n v M , +X[.>.4XyXqXyXyXqXwXwX",
"wXwXwXwXwXwXwXiX6.2 F n b 2 OXiXqXyX2X;.m.H.H.H.q.< V n g Q J   #                                                 +     i.H.n.H.H.` < I.sXxXjXY j m n v m f U qX,XI.aXyXyXqXqXyXwXwX",
"wXwXwXwXwXwXqXdX~.2 F c A t XXiXqXwXtXB.z.H.H.H...< n n h Q p.    O                                             O     r.K.H.n.H.t.* 5.&XsXxXrX< r v n n F 2 7.dXT.9XyXwXwXwXwXwXwXwX",
"wXwXwXyXwXyXqXdX X2 F n A 2  XdXqXqXtX#Xz.H.M.H...< V n z D G.e.  % X                                         O #   r.H.M.G.K.f.x a hXxXlXxX/.2 / B v n C t @X%XT.tXqXwXwXwXwXyXwXwX",
"wXwXwXwXqXyX0X].+Xn n n A , _.aXqXyXtX-Xz.H.G.K...< V M 2 6.%Xz.X.  # O                                     # O   ,.K.n.M.M.k.U ; }.xXlXzXjXT W ] E l A 2 -.%Xb.0XyXqXyXwXwXwXwXwXwX",
"wXwXwXwXwXyXqX2X0Xo.p b F 2 ~.dXwXyXtX4Xz.H.G.H.w.< C M 2 '.;Xj.H.,.    %                               . %     w.H.M.H.H.g.U , 1.lXlXlXxX}.2 G n c V c 1 A.j.=XtXqXwXwXwXwXwXwXwXyX",
"wXwXwXwXwXwXwXyXiX4.2 A A , 6.iXqXeXyX3Xn.H.H.H.r.< C m t +X9Xb.H.H.i.-   + o O                     O % X   0 i.H.H.H.M.r.P , #.hXxXlXzXjX) a m c Z h g a.l.T.yXtXwXwXwXwXwXyXwXwXwX",
"wXwXwXyXwXwXwXqXdX_.2 A m i @.wXwXqXyXqXJ.G.H.H.f.q b D 2 OXuXP.n.H.K.k.J       # % % # @ @ # % % #       } c.K.H.M.k.` r 2 Y hXxXlXlXxX}.2 G n V 6 K f.H.J.0XyXqXwXwXwXwXwXqXyXwXwX",
"wXwXwXwXwXwXwXwXiX>Xl v n m t OXaXqXyXyXU.b.G.H.x.C l P , }.xX-Xh.J.M.H.p.* J J   X     X X         0 | k.K.K.v.p.} S S < -.lXxXlXlXxXhXp n V n , } x.H.z.4XyXwXwXwXwXwXwXwXwXwXwXwX",
"wXwXwXwXwXwXwXwXwXiX&.2 A D 2 6.uXyXqXtX%Xl.H.G.n._ a P 2 W.xXjXm.H.H.H.M.! m a.a.,.` ! J J ! ` w.f.H.H.k.r.} Q 8 S t t ^.lXxXlXlXxXhXY a P 7 g w.G.J.l.*XyXyXwXwXwXyXwXwXwXwXwXwXwX",
"wXyXwXwXwXwXwXwXqXdX).2 F n l n 2XiXqXyX3Xb.H.G.H.e.< C v k hXxX*Xh.J.G.H.f.: a X.f.k.v.x.x.k.f.a.e.} Q g 8 e m p 2 *.rXxXzXzXlXxXhX*.u D : _ f.H.G.l.E.yXwXwXwXwXwXwXwXwXwXwXwXwXwX",
"wXwXwXwXwXwXwXwXwXiX<XF l n P 2 9.dXqXwXwXU.b.H.H.x.V l P , ^.xXjXH.G.G.H.H.N.L * ; x F K M n w 4 4 r 8 D k 2 2 ' }.lXxXlXlXlXxXhX#.2 r C r.H.H.J.l.T.yXwXwXwXwXwXwXyXwXyXwXwXwXwXwX",
"wXwXwXwXwXwXwXyXwXwXiX6.2 M z , m <XiXqXyX4Xl.H.H.H...< m n k hXxX-Xh.J.H.H.K.#X~.( t , 2 2 y p a t u ~ u / 6.OXuXzXzXlXlXxXxXrXU ; I ..D.H.H.H.l.R.yXyXqXyXyXwXwXwXwXwXwXwXwXwXwXwX",
"wXwXwXwXwXwXwXwXwXqXiX+Xu x ` t.: 6.iXqXyXyXY.b.H.M.v.C h G t -.gXyXU.b.H.H.m.m.-X8XXX!.4.&.@.@.$.-.Q.#X@XsXkXzXzXzXlXzXxXlX/.: B w.x.K.H.H.M.l.%XwXwXwXwXwXwXwXwXwXwXwXwXwXwXwXwXwX",
"wXwXwXwXwXwXwXwXwXwXqXiX4.: ` ..x t OXiXqXyX0XH.H.H.H.i.< V G 2 3.yXeXJ.b.H.G.G.j.U.eXfXfXyXqXqXyXfXfXuXkXxXlXlXzXzXxXzXrX#.~ i.G.H.H.n.H.b.H.-XyXwXwXwXwXwXwXwXwXwXwXwXwXwXwXwXwXwX",
"wXwXwXwXwXwXwXwXwXqXwX,X{.k x < M i +.qXyXqXyX-Xl.H.H.H...: V F , <.8XeXG.b.H.H.H.z.b.R.3XqXtXtXyXyXtXtXyXuXgXgXsXsXrX8.:.d.J.J.H.G.G.J.z.U.0XyXtXqXwXyXwXwXwXwXwXwXwXwXwXwXyXwXwXwX",
"yXwXwXwXwXwXwXwXyXqXiXC.Z.!., F n F , 9.dXyXqXyX&Xl.H.G.H. ., V K , I '.4XL.H.G.H.H.G.z.z.P.R.=X4X0X0X0X0X3X4X=X%XP.h.j.K.J.H.G.H.J.H.s.[.wXyXwXwXwXwXwXwXwXwXwXyXwXwXwXwXwXwXwXwXwX",
"qXwXwXwXwXwXwXwXwXyXwXqXqX2XP k n n M t {.wXqXyXyX&Xl.H.H.H...< h F k , #.Z.D.H.G.G.H.H.H.n.z.l.b.n.H.H.H.n.b.b.z.m.J.J.G.n.H.H.J.d.{ `.yXwXwXwXwXwXwXwXwXwXwXwXwXwXwXwXwXwXwXwXyXwX",
"yXwXwXwXwXwXwXwXwXwXwXyXqXdX'.2 F v n e 0.&XwXeXwXdX=Xm.m.J.M.i.C 1 m F t , K r.H.H.H.G.n.H.H.G.H.G.G.G.H.G.G.H.H.H.G.H.H.H.D.i.~ O.+XiXyXqXyXyXwXwXwXwXwXwXwXwXwXwXwXwXwXwXwXwXwXwX",
"wXwXwXwXwXwXwXwXwXwXyXqXwXyXiX4., F n n ^ ;.qXwXwXwXwX9XL.l.H.K.x.| g 6 m K l 1 _ r.v.H.H.H.H.H.G.H.G.G.H.H.H.H.H.H.G.k.u.| p : 7.qXiXqXyXqXwXyXwXwXwXwXwXwXwXyXwXwXwXyXwXwXwXwXwXwX",
"wXyXwXwXwXwXyXwXwXwXwXwXwXqXyXqX+.t D v x : &.wXwXwXwXwXqXR.b.b.H.K.f.} h < h A h 6 C } r.f.k.v.G.G.G.G.H.D.k.a.t. ._ F ; ; %.+XiXyXqXyXwXwXwXwXyXwXwXwXwXwXwXwXwXwXwXwXwXwXwXwXwXwX",
"wXwXwXwXwXyXwXwXwXwXwXwXwXwXqXiX>XF f A v P 2 2.wXwXwXwXtXtX3XY.z.b.H.H.k...Q a 6 h h 7 6 h C Q ! _ _ ! Q C c x 8 8 : 2 #.{.yXaXyXqXyXyXwXwXqXwXwXwXwXyXwXwXwXwXwXwXwXwXwXwXwXyXyXwX",
"wXwXwXwXwXwXwXwXwXwXwXwXwXwXyXqXiXOXj j A l F , 3.yXyXyXwXwXtXwX4XU.b.z.M.H.G.f.>._ K g 6 6 6 6 7 a g z l l k u 2 f &.{.qXaXwXqXwXwXyXyXyXyXyXyXqXyXwXqXwXwXwXwXwXwXwXwXwXwXwXwXwXwX",
"wXwXwXwXwXwXwXwXwXwXwXwXwXwXwXwXqXdXOXj f F l F 2 =.qXiXqXwXwXwXtXtX3X$XL.z.z.H.K.H.F.f.r. .} ! K V h q 6 8 L =.~.<XdXfXtXyXyXyXyXyXyXqX0X3X4X0XyXwXwXyXwXwXwXwXqXyXwXwXwXwXwXwXwXwX",
"wXwXyXwXwXwXwXwXwXyXwXwXwXwXwXwXwXqXdXOXF t F v F t ;.6XdXqXwXwXwXwXtXtX0X-XR.J.z.l.b.H.K.H.J.H.D.S.f.a.u.A.I.*X-X=X*X&X&X&X%XE.R.U.P.H.J.R.4XqXwXwXwXwXwXwXwXwXyXwXwXwXwXwXwXwXwXwX",
"wXwXwXwXwXwXwXwXwXwXwXwXwXwXwXwXwXwXqXiX<X+.2 F m F W ( @XdXqXqXwXwXwXtXtXtXyXeX4X&XU.J.b.l.l.b.m.M.H.K.H.H.M.z.l.l.z.l.j.j.h.h.h.M.U.=X0XtXyXyXwXwXwXwXwXyXwXwXwXwXwXyXwXwXwXwXwXwX",
"wXwXwXwXwXwXyXwXwXwXwXwXwXwXwXyXdXdXwXqXiXqX5., j F D p f _.uXyXqXyXwXwXwXqXwXwXtXtXwX0X3X-X%XY.P.J.G.b.z.z.z.b.b.b.b.M.J.U.T.&X4XqXyXtXyXyXqXqXyXwXwXwXwXwXwXwXwXwXwXwXwXyXwXwXwXwX",
"wXwXwXwXwXwXwXwXwXwXwXwXwXwXqXiX].].yXwXqXwXiX'.I 2 m P n , 4.0XdXwXqXyXwXwXwXwXwXwXwXtXtXtXtXwXyX0X0X3X4X4X=X=X-X4X3X3X0XqXwXyXtXyXyXqXqXwXyXyXyXwXwXwXwXyXwXwXwXwXwXwXwXwXwXwXwXwX",
"wXwXyXwXwXwXwXwXwXwXwXwXwXwXqXiXC.C.yXwXwXwXwXiX6X7.y 2 M I 2 U '.iXaXqXwXyXwXwXtXwXwXwXwXqXwXwXyXyXyXyXtXtXyXyXtXtXyXtXyXyXwXqXqXyXyXtXwXwXwXwXwXwXwXwXwXwXyXqXwXwXwXwXwXwXwXwXwXwX",
"wXwXwXwXwXwXwXwXwXwXwXwXwXwXyXyXyXyXwXwXwXwXwXwXtXdX:X<.2 2 M n 2 2.>XyXwX2XqXwXwXwXwXwXwXwXwXwXqXyXqXqXqXyXyXqXyXqXyXqXqXwXwXwXyXqXyXqXwXwXwXwXwXwXwXwXwXwXwXyXyXwXwXwXwXwXwXwXwXwX",
"wXwXyXqXyXwXwXwXwXwXwXwXwXwXwXwXwXwXwXwXwXwXwXwXqXwXdXyX@X6.n 2 p 2 l !.>XN.0XwXqXwXwXwXwXwXwXwXyXqXyXwXwXwXwXwXtXtXqXyXqXyXyXwXyXqXwXwXwXwXwXwXwXwXwXwXwXwXwXwXwXwXwXwXwXwXwXwXwXwX",
"wXwXwXwXwXwXwXwXwXyXwXwXwXwXwXwXwXwXwXwXwXwXwXwXwXwXwXwXdXdX2X).%.n 2 ; c 3.>XdXdXyXwXwXwXwXwXwXyXyXqXyXwXwXwXwXyXqXyXtXyXyXqXyXyXyXwXwXyXwXwXwXqXyXwXwXwXwXwXwXwXwXwXwXwXwXwXwXyXwX",
"wXwXwXwXwXwXwXwXwXwXwXwXwXyXqXwXwXwXwXwXwXwXwXwXwXwXwXqXfX|.[.fXwX>X).3.( , 2 &._.7XyXiXyXwXwXwXyXqXyXwXyXwXwXwXqXqXyXyXqXyXyXyXqXwXwXwXwXwXwXwXyXwXwXwXwXyXwXwXwXwXwXwXwXwXwXwXqXyX",
"wXwXwXwXwXyXwXwXwXwXwXwXwXwXyXwXtXwXwXwXwXwXwXwXwXwXyXyXyX,X:XyXyXiXdXuX6X:X_.6.&.=.9. X<XwXwXwXqXyXwXwXwXwXwXwXyXyXyXqXyXqXyXqXyXwXwXwXwXwXwXwXwXwXwXyXyXqXwXwXwXwXwXwXwXyXwXwXwXwX",
"wXwXwXwXwXwXwXwXwXwXwXwXwXwXwXwXwXwXwXwXwXwXwXwXwXwXyXwXwXyXiXwXwXwXwXwXwXiXfXfXdXqX2X>X<XwXwXwXwXwXwXwXwXwXtXwXwXwXwXwXwXwXwXwXwXwXwXwXwXwXwXyXyXqXwXwXwXwXwXwXwXwXwXyXwXwXwXwXwXwX",
"wXwXwXwXwXwXwXwXwXwXwXwXwXwXwXwXwXwXwXwXwXwXwXwXwXwXwXwXwXwXwXwXwXwXwXwXwXiX[.].tXtXtXdXyXwXwXwXwXwXwXwXwXwXwXwXwXwXwXwXwXwXwXwXwXwXwXwXwXwXwXwXwXyXwXwXwXwXwXwXwXwXwXwXwXwXwXwXyXwX",
"wXwXwXwXtXwXwXwXwXwXwXwXwXwXwXwXwXwXwXwXwXwXwXwXwXwXwXwXwXwXwXwXwXwXwXwXwXtX:X#XtXwXwXwXwXwXwXwXwXwXwXwXwXwXwXwXwXwXwXwXwXwXwXwXwXyXwXwXwXwXwXwXwXwXwXwXwXwXwXwXwXwXwXwXwXwXwXwXwXwX"
};
