/* XPM */
static char *_03f9e629e3842ca993240c7e90f4d3dpWkqHrx1HbQp3mxW[] = {
/* columns rows colors chars-per-pixel */
"90 83 237 2 ",
"   c #000000",
".  c #0B0000",
"X  c #000019",
"o  c #1D1011",
"O  c #1C1515",
"+  c #291505",
"@  c #2D2311",
"#  c #352B1A",
"$  c #030E2E",
"%  c #1A293A",
"&  c #252225",
"*  c #28292B",
"=  c #29313B",
"-  c #343030",
";  c #36383A",
":  c #483310",
">  c #693700",
",  c #473E38",
"<  c #4F422F",
"1  c #715A31",
"2  c #09324E",
"3  c #193A55",
"4  c #293848",
"5  c #343E48",
"6  c #00405E",
"7  c #2F404F",
"8  c #3C454B",
"9  c #2B455B",
"0  c #364655",
"q  c #174B6B",
"w  c #034C70",
"e  c #1A5478",
"r  c #2E4B63",
"t  c #334E64",
"y  c #2E536D",
"u  c #34536C",
"i  c #3C5469",
"p  c #285676",
"a  c #345A77",
"s  c #3A5A73",
"d  c #395E7A",
"f  c #3D627E",
"g  c #474949",
"h  c #54504B",
"j  c #4A5258",
"k  c #555757",
"l  c #5C5C5C",
"z  c #635E55",
"x  c #5E605F",
"c  c #7B6549",
"v  c #676259",
"b  c #4A5A67",
"n  c #565B61",
"m  c #435D72",
"M  c #49606F",
"N  c #586469",
"B  c #43647C",
"V  c #4C6579",
"C  c #566B77",
"Z  c #686665",
"A  c #6D6C6B",
"S  c #78726B",
"D  c #676D72",
"F  c #69747B",
"G  c #757675",
"H  c #A27000",
"J  c #896B38",
"K  c #946D30",
"L  c #AA7B2A",
"P  c #927849",
"I  c #897D6E",
"U  c #BD8B32",
"Y  c #B38B3B",
"T  c #CB9400",
"R  c #CB9813",
"E  c #E5AF01",
"W  c #CA972A",
"Q  c #CC9B3A",
"!  c #D19E39",
"~  c #D8A627",
"^  c #D9A639",
"/  c #DCAA3E",
"(  c #EBB828",
")  c #E2AE3B",
"_  c #E6B43C",
"`  c #F8C100",
"'  c #F8C629",
"]  c #FCCB39",
"[  c #FFD13A",
"{  c #998056",
"}  c #AC8647",
"|  c #B58D48",
" . c #B7914B",
".. c #B89553",
"X. c #93846A",
"o. c #8C8476",
"O. c #938C7B",
"+. c #AB966B",
"@. c #AA9675",
"#. c #B8A16B",
"$. c #BAA679",
"%. c #C59B42",
"&. c #C29E51",
"*. c #CBA44C",
"=. c #D7AB47",
"-. c #DCAB41",
";. c #DDB147",
":. c #DFB24A",
">. c #C9A557",
",. c #D5AC56",
"<. c #D9B359",
"1. c #E0AE42",
"2. c #E3B344",
"3. c #EABB45",
"4. c #E2B64B",
"5. c #E5B84D",
"6. c #E9BD4D",
"7. c #E4BA54",
"8. c #E5BB59",
"9. c #CBAD6F",
"0. c #DCBA6A",
"q. c #D2B675",
"w. c #E5BE67",
"e. c #E0BF77",
"r. c #F4C648",
"t. c #F6C749",
"y. c #EFC355",
"u. c #F6CA56",
"i. c #FED558",
"p. c #FED55B",
"a. c #E9C46A",
"s. c #FDD665",
"d. c #FFD964",
"f. c #FBD56B",
"g. c #FDD96C",
"h. c #F2CE70",
"j. c #FCDA73",
"k. c #F3D279",
"l. c #005884",
"z. c #0B628A",
"x. c #236286",
"c. c #3E6582",
"v. c #3A6B8A",
"b. c #356E91",
"n. c #436781",
"m. c #436A85",
"M. c #4C6C84",
"N. c #466D88",
"B. c #496F89",
"V. c #44718E",
"C. c #4C728C",
"Z. c #577589",
"A. c #52758D",
"S. c #557991",
"D. c #577991",
"F. c #667A85",
"G. c #6D8289",
"H. c #798388",
"J. c #6D8A9A",
"K. c #768D96",
"L. c #799EB1",
"P. c #868584",
"I. c #8B8A87",
"U. c #8D8B8B",
"Y. c #918E8A",
"T. c #97958E",
"R. c #959393",
"E. c #999998",
"W. c #9D9B9B",
"Q. c #AA9F84",
"!. c #A49D93",
"~. c #A09E9E",
"^. c #B1A997",
"/. c #88A3AC",
"(. c #8CA9B2",
"). c #92ADB6",
"_. c #98B4BC",
"`. c #A3A2A2",
"'. c #A8A7A9",
"]. c #ACABAB",
"[. c #B7AEA6",
"{. c #B8B3AE",
"}. c #ADAEB2",
"|. c #B3B3B3",
" X c #B9B6B5",
".X c #B3B5BA",
"XX c #BCBCBC",
"oX c #D2BC8F",
"OX c #C3BCB3",
"+X c #DFC284",
"@X c #DBC494",
"#X c #EBD18E",
"$X c #FDE099",
"%X c #D8CAA8",
"&X c #C8C4BA",
"*X c #D9D7BC",
"=X c #E5D9A9",
"-X c #E3DAB7",
";X c #9BBAC4",
":X c #BBBFC1",
">X c #A4C3CC",
",X c #A7CAD4",
"<X c #AED2DD",
"1X c #B7D4DB",
"2X c #AFD5E0",
"3X c #B6DCE7",
"4X c #B5E0EF",
"5X c #BAE2ED",
"6X c #BDE7F3",
"7X c #BFE9F5",
"8X c #BBEAFA",
"9X c #C6C7C5",
"0X c #CBCBCC",
"qX c #D3DDCC",
"wX c #C9D6D4",
"eX c #D5D7D5",
"rX c #DCDBDB",
"tX c #E3DED6",
"yX c #D9E0CA",
"uX c #D3E2D6",
"iX c #F1E5CE",
"pX c #C6DEE6",
"aX c #C8E4E3",
"sX c #C3E5EC",
"dX c #D2E7E7",
"fX c #C0E7F1",
"gX c #C0E9F4",
"hX c #C2EDFA",
"jX c #C5F1FD",
"kX c #CAF6FF",
"lX c #E4E3E3",
"zX c #E7E7E7",
"xX c #EBEBEB",
"cX c #F0EFEF",
"vX c #EFEFF0",
"bX c #F2F2F2",
"nX c #F8F8F8",
/* pixels */
"7X7X7X7X7X7X7X7X7X7X7X7X7X7X7X7X6X6XhXhX6X6X7X7X7X7X7X7X7X7X7X7X7X7X7X7X7X7X7X7X7X7X7X7X7X7X7X7X7X7X7X7X7X7X7X7X7X7X7X7X7X7X7X7X7X7X7X7X7X7X7X7X7X7X7X7X7X7X7X7X7X7X7X7X7X7X7X7X7X7X",
"7X7X7X7X7X7X7X7X7X7X7X7X7X7X7X7XhX6X6X6X7XgX7X7X7X7X7X7X7X7X7X7X7X7X7X7X7X7X7X7X7X7X7X7X7X7X7X7X7X7X7X7X7X7X7X7X7X7X7X7X7X7X7X7X7X7X7X7X7X7X7X7X7X7X7X7X7X7X7X7X7X7X7X7X7X7X7X7X7X7X",
"7X7X7X7X7X7X7X7X7X7X7X7X7X7X7X7XhX6X6XhX7X7X7X7X7X7X7X7X7X7X7X7X7X7X7X7X7X7X7X7X7X7X7X7X7X7X7X7X7X7X7X7X7X7X7X7X7X7X7X7X7X7X7X7X7X7X7X7X7X7X7X7X7X7X7X7X7X7X7X7X7X7X7X7X7X7X7X7X7X7X",
"7X7X7X7X7X7X7X7X7X7XgX7X7X7X7X7X6X6XhXgX7X7X7X7XgX7X7X7X7X7X7X7X7X7X7X7X7X7X7X7X7X7X7X7X7X7X7X7X7X7X7X7X7X7X7X7X7X7X7X7X7X7X7X7X7X7X7X7X7X7X7X7X7X7X7X7X7X7X7X7X7X7X7X7X7X7X7X7X7X7X",
"7X7X7X7X7X7X7X7X7X7X7X7X7X7X7X7X7X7X7X8X7X7X7X7X7X7X7X7X7X7X7X7X7X7XgX7X7X7X7X7X7X7X7X7X7X7X7X7X7X7X7X7X7X7X7X7X7X7X7X7X7X7X7X7X7X7X7X7X7X7X7X7X7X7X7X7X7X7X7X7X7X7X7X7X7X7X7X7X7X7X",
"7X7X7X7X7X7X7X7X7X7X7X7X7X7X7X7X7X7X7X7X7X7X7X7X7X7X7X7X7X7X7X7X7X7X7X7X7X7X7X7X7X7X7X7X7X7X7X7X7X7X7X7X7X7X7X7X7X7X7X7X7X7X7X7X7X7X7X7X7X7X7X7X7X7X7X7X7X7X7X7X7X7X7X7X7X7X7X7X7X7X",
"7X7X7X7X7X7X7X7X7X7X7X7X7X7X7X7X7X7X7X7X7X7X7X7X7X7X7X7X7X7X7X7X7X7X7X7X7X7X7X7X7X7X7X7X7X8X7X7X7X7X7X7X7X7X7X7X7X7X7X7X7X7X7X7X7X7X7X7X7X7X7X7X7X7X7X7X7X7X7X7X7X7X7X7X7XgX7X7X7X7X",
"7X7X7X7X7X7X7X7X7X7X7X7X7X7X7X7X7X7X7X7X7X7X7X7X7X7X7X7X7X7X7X7X7X7X7X7X7X7X7X7X7X7X7XgXgXgX7X7X7XgX7X7X7X7X7X7X8XgX7X7X7X7X7X7X7X7X7X7X7X7X7X7X7XgX7X7X7X7X7X7X7X7X7X7X7XgXgX8X7X7X",
"7X7X7X7X7X7X7X7X7X7X7X7X7X7X7X7X7X7X7XgX7X7X7X7X7X7X7X7X7X7X7X7X7X7X7X7X7X7X7X7X7X7X7X7X7X7X7X7X7X7X7X7XgX7X7X7XhX6XhX6XgX6XgX7X7X7X7X7X7X7X7X7X7X7X7X7X7X7X7X7X7X7X7X7X7X7X7X7X7X7X",
"7X7X7X7X7X7X7X7X7X7X7X7X7X7X7X7X7X7X7X7X7X7X7X7X7X7X7X7X7X7X7X7X7X7X7X7X7X7X7X7X7X7X7X7X7X7X7X7X7X7X7X7X7X7X7X7X6XhX6X6X6XgX7X7X7X7X7XgX7X7X7X7X7X7X7X7X7X7X7X7X7X7X7X7X7X7X7X7X7X7X",
"7X7X7X7X7X7X7X7X7X7X7X7X7X7X7X7X7X7X7X7X7X7X7X7X7X7X7X7X7X7X7X7X7X7X7X7X7X7X7X7X7X7X7X7X7X7X7X7X7X7X7X7X7X7X7X7X6X6XhXhX7X7X7X7X7X7X7X7X7X7X7X7X7X7X7X7X7X7X7X7X7X7X7X7X7X7X7X7X7X7X",
"7X7X7X7X7X7X7X7X7X7X7X7X7X7X7X7X7X7X7X7X7X7X7X7X7X7X7X7X7X7X7X7X7X7X7X7X7X7X7X7X7X7X7X7X7X7X7X7X7X7X7X7X7X7X7X7XhX6X6X6X7X7X7X7X7X7X7XgX7X7X7X7X7X7X7X7X7X7X7X7XgX7X7X7X7X7X7X7X7X7X",
"7X7X7X7X7X7X7X7X7X7X7X7X7X7X7X7X7X7X7X7X7X7X7X7X7X7X7X7X7X7X7X7X7X7X7X7X7X7X7X7X7X7X7X7X7X7X7X7X7X7X7X7X8XgXgX7X7X7X7X7X7X7X7X7X7X7X7XgX7X7X7X7X7X7X7X7X7X7X7X7X7X7X7X7X7X7X7X7X7X7X",
"7X7X7X7X7X7X7X7X7X7X7X7X7X7X7X7X7X7X7X7X7X7X7X7X7X7X7X7X7XgX7X7X7X7X7X7X7X7X7X7X7X7XgX7X7X7X7X7X7X7X7X7XgX7X7X7X7X7X7X7X7X7X7X7X7X7XgX8X7X7X7X7X7X7X7X7X7X7X7X7X7X7X7X7X7X7X7X7X7X7X",
"7X7X7X7X7X7X7X7X7X7X7X7X7X7X7X7X7X7X7X7X7X7X7X7X7X7X7X7X7X7X7X7X7X7X7X7X7X7X7X7X7X7X7X7X7X7X7X7X7X7X7X7X7X7X7X7X7X7X7X7X7X7X7X7X7X7X7X7X7X7X7X7X7X7X7X7X7X7X7X7X7X7X7X7X7X7X7X7X7X7X",
"7X7X7X7X7X7X7X7X7X7X7XgX7X7X7X7X7X7X7X7X7X7X7X7X7X7X7X7X7X7X7X7X7X7X7X7X7X7X7X7X7X7X7X7X7X7X7X7X7X7X7X7X7X7X7X7X7X7X7X7X7X7X7X7X7X7X7X7X7X7X7X7X7X7X7X7X7X7X7X7X7X7X7X7X7X7X7X7X7X7X",
"7X7X7X7X7X7X7X7X7X7X7X7X7X7X7X7X7X7X7X7X7X7X7X7X7X7X7X7X7X7X7X7X7X7X7X7X7X7X7X7X7X7X7X7X7X7X7XgX7X7X7X7X7X7X7X7X7X7X7X7X7X7X7X7X7X7X7X7X7X7X7X7X7X7X7X7X7X7X7X7X7X7X7X7X7X7X7X7X7X7X",
"7X7X7X7X7X7X7X7X7X7X7X7X7X7X7X7X7X7X7X7X7X7X7X7X7X7X7X7X7X7X7X7X7X7X7X7X7X7X7X7X7X7X7X7X7X7X7XgX7X7X7X7X7X7X7X7X7X7X7X7X7X7X7X7X7X7X7X7X7X7X7X7X7X7X7X7X7X7X7X7X7X7X7X7X7X7X7X7X7X7X",
"7X7X7X7X7X7XgX7X7XgX7X7X7X7X7X7X7X7X7X7X7X7X7X7X7X7X7X7X7X7X7X7X7X7X7X7X7X7X7X7X7X6X7X6XgXgXhX6X7X7X7X7X7X7X7X7X7X7X7X7X7XjXhX7X7X7X7X7X7X7X7X7X7X7X7X7X7X7X7X7X7X7X7X7X7X7X7X7X7X7X",
"7X7X7X7X7X7X7X7X7X7X7X7X7X7X7X7X7X7X7X7X7X7X7X7X7X7X7X7X7X7X7X7X7X7X7X7X7X7X7X7X7X8X8X8X8X8X8X8X7XgX7X7X7X7X7X7X7X7X7X7X7X_.<X7X6X7X7X7X7X7X7X7X7X7X7X7XgX7X7X7X7X7X7X7X7X7X7X7X7X7X",
"7X7X7X7X7X7X7X7X7X7X7X7X7X7X7X7X7X7X7X7X7X7X7X7X7X7X7X7X6XhXhX6X7X7X7X7X6X7X8X8X6XaXuXyXyXyXuXaX6X8X8X6X6XgX7X7X7X7X6XhX;X  j fXhXgXgXgX7X7X7X7X7X7X7X7X7X7X7X7X7X7X7X7X7X7X7X7X7X7X",
"7X7X7X7X7X7X7X7X7X7X7X7X7X7X7X7X7X7X7X7X7X7X7X7X7X7X7X7XgX6X6X6X7X7X7X7X8X6XuX=X#Xg.d.p.i.i.i.g.#X*XaX8X7XgX7X7X7XhXhXjX/.  F.;X/.6XgXgX7X7X7X7X7X7X7X7X7X7X7X7X7X7X7X7X7X7X7X7X7X7X",
"7X7X7X7X7X7X7X7X7X7X7X7X7X7X7X7X7X7X7X7X7X7X7X7X7X7X6X6X6XhX6XhX7X7X8X7XyXj.i.p.g.g.j.j.j.j.j.s.i.t.i.=XfX8X6XgX6X_._.7XK.  F g   ,XhX6X7X7X7X7X7X7X7X7X7X7X7X7X7X7X7X7X7X7X7X7X7X7X",
"7X7X7X7X7X7X7X7X7X7X7X7X7X7X7X7X7X7X7X7X7X7X7X7X7X7XgXhX6X6X6XhX7X8XuXh.[ i.d.d.d.d.d.g.d.d.f.f.g.d.i.[ h.aX8XhX>X  + H.h , -   G.7XgX7X7X7X7X7X7X7X7X7X7X7X7X7X7X7X7X7X7X7X7X7X7X7X",
"7X7X7X7X7X7X7XgX7X7X7X7X7X7X7X7X7X7X7X7X7X7X7X7X7X7X7X7X6X6XhX6X6X-X] i.s.p.$XiXiXiXtX9X%X#Xh.s.s.p.i.a.u.h.aX8X5XK.O . , ; & g 3XhX7X7X7X7X7X7XgXgX7X7X7X7X7X7X7X7X7X7X7X7X7X7X7X7X",
"7X7X7X7X7X7X7X7X7X7X7X7X7X7X7X7X7X7X7X7X7X7X7X7X7X7X7X7XhX6X8X6X#X[ g.s.g.yX0X].W.~..X9X.X'.oXe.f.j.i.s.h.f.k.aX8XhX<XD o 5   ;XhX6XgX7X7X7X7X7XgX8X7X7X7X7X7X7X7X7X7X7X7X7X7X7X7X7X",
"7X7X7X7X7X7X7X7X7X7X7X7X7X7X7X7XgX7X7X7X7X7X7X7X7X7X7X7X6X6XpX=Xi.j.g.d.*X'.Z h A G S P.]. X.X{.Y.^.=.*.&.#.+.E.5XgXjXK.+ . K.jX6XgXhX6X7X7X7X7X7X7X7X7X7X7X7X7X7X7X7XgX7X7X7X7X7X7X",
"7X7X7X7X7X7X7X7X7X7X7X7X7X7X7X7X7X7X7X7X7X7X7X7X7XgX7XgXdXrXeXtXeX%X+X%X`.v N '.0XrXeX XR.'.lXXXl G 2 $ 5 n D v ).jX,X  %   ,XjX6X6X6X6X7X7X7X7X7X7X7X7X7X7X7X7X7X7X7X7X7X7X7X7X7X7X",
"7X7X7X7X7X7X7X7X7X7X7X7X7X7X7X7X7X7X7X7X7X7X7X7X7X7XsX0X'.Y.U.R.}.9X0X}.I g '.zXvXlXxXvX0XU..X|.Z S k - 8 n Z S o.5XgXQ.> k 2XgX6X8XgXhX7X7X7X7X7X7X7X7X7X7X7X7X7X7X7X7X7X7X7X7X7X7X",
"7X7X7X7X7X7X7X7X7X7X7X7X7X7X7X7X7X7X7X7X7X7X7XgX7XfX XP.n S Y.R.P.I.|.~.A G rXbXlXI I rXbX'.U.U.g A Z # J Y %.0.+XsXgXk.E 1XhX6X7X7XhX6X7X7X7XgX7X7X7X7X7X7X7X7X7X7X7X7X7X7X7X7X7XgX",
"7X7X7X7X7X7X7X7X7X7X7X7X7X7X7X7X7X7X7X7X7X7X7XgXgX:XU.l U.0XlXcXzX9XU.U.A R.lXvX!.z : [.bXXXI o.l j o.W 1.) 4.w.a.uXaX' 0.6X8XgX7X7X7X7X7X7X7X7X7X7X7X7X7X7X7X7X7X7X7X7X7X7X7X7X7X7X",
"7X7X7X7X7X7X7X7X7X7X7X7X7X7X7X7X7X7X7X7X7X7X7X8X3X`.A Z eXcXnXrX{.lX9XP.P.`.lXbX~.> H 9XvXXXA X.I c L / -./ ;.w.w.*X*X` oX8XgXgX7X7X7X7X7X7X7X7X7X7X7X7X7X7X7X7X7X7X7X7X7X7X7X7X7X7X",
"7X7X7X7X7X7X7X7X7X7X7X7X7X7X7X7XhX6X6X6X6XhX6XhX1XR.x `.xXvXvX!.# U.rXR.U.~.lXxXcXOX0XzXlX].Z Y.I K Q / -.-.1.8.w.+Xh.` &X6X6X6X7X7X7X7X7X7X7X7X7X7X7X7X7X7X7X7X7X7X7X7X7X7X7X7X7X7X",
"7X7X7X7X7X7X7X7X7XgX7X7X7X7X7X7X6X6XhXhXhX8X6XhX1XT.l  XzXnXrX: 1 c rX`.E.W.9XxXcXbXcXzXrXP.U.I J L ^ / / / -.2.8.w.u.) wXhXhXgX7X7X7X7X7X7X7X7X7X7X7X7X7X7X7X7X7X7X7X7X7X7X7X7X7X7X",
"7X8X7X7X7X7X7X7X7X7X7X7X7X7X7X7XgX6X6X6X6X6XgX6X1X!.G XXxXcXbX].P OXzXW.P.W.~.0XrXlXlXrX~.Y.Y.h K Q -.-.-./ -.2.1.7.3.w.6XgX6X6X7X7X7X7X7X7X7X7X7X7X7X7X7X7X7X7X7X7X7X7X7X7X7X7X7X7X",
"hXgX7X7X7X7X7X7X7X7X7X7X7X7X7X7X6XhXhX6X6XhXhX8XpX].P.].zXcXcXbXxXcXeXP.|.|.~.W. X9X9X~.R.'.v J U ! / -.-.^ ! P P ,.( oX8X6X6XhX7X7X7X7X7X7X7X7X7X7X7X7X7X7X7X7X7X7X7X7X7X7X7X7X7X7X",
"6X6XhX6X7X7X7X7X7X7X7X7X7X7X7X7X6X6XhX6X6X6XhX6XgX1X!.R.0XxXxXxXxXlX].W.R.`.:X|.'.'.'.|.`.c L U ! / / -.) %.l 2 g :.( 9X8XgX6XgX7X7X7X7X7X7X7X7X7X7X7X7X7X7X7X7X8X7X7X7X7X7X7X7X7X7X",
"hX6XhX6X7X7X7X7X7X7X7X7X7X7X7X7XhX6XhX6XhX6X6X6X7XpX{.W.`.9XrXrXrX XW.].g > I ^.[.|.[.@.H L } ^ ! / -.1.P t q 2 } t.~ 1XhX6X7XgX7X7X7X7X7X7X7X7X7X7XgX7X7X7X7X7XhX7X7X7X7X7X7X7X7X7X",
"6XhX6X6X7X7X7X7X7X7X7X7X7X7X7X7X6XhX6X6XhX6XgX8X6X6XwXXX'.~.].|.'.].OXI K %.~ T T T T U @.o.F.Y 1./ 1.| q q n K ! y.~ _.hX7X7X7X7X7X7X7X7X7X7X7X7X7X7X7X7X7X7X7XgX6X7X7X7X7X7X7X7X7X",
"6X6X6XhX7X7X7X7X7X7X7X7X7X7X7X7X6X6X6XhX6XgXgX6XhXgX6XpX0XXX.X|.XX XP L ! ~ ) 2.,.$.O.R.P.j < ^ 1.) | q q n %./ y.:.2.`.8X6X7X7X7X7X7X7X7X7X7X7X7X7X7X7X7X7X7X7X6XhX7X7X7X7X7X7X7X7X",
"gX7X7X7X7X7X7X7X7X7X7X7X7X7X7X7XhX6XhX6X6X6XhX6X7X7X7X7X5X@X+XoX9.R W =.>.#.+.I T.P.5 = +   K 2.) ..q p b Q 4.;.;.=.7.9X8XgX7X7X7X7X7X7X7X7X7X7X7X7X7X7X7X7X7X7X6X6XhX6X7X7X7X7X7X7X",
"7X7X7X7X7X7X7X7X7X7X7X7X7X7X7X7XhX6X6X6XhX6XhX6X7X7X7XgX4X9.( r.3.6.1 g N N 4 X O   + # X < :._ *.p p i Q 3.:.:.;.=.3.*X8XgX7X7X7XgX7X7X7X7X7X7X7X7X7X7X7X7X7X7XhX6XhX6X7X7X7X7X7X7X",
"7XgX7X7X7X7X7X7X7X7X7X7X7X7X7X7X6X6X6XhX7X7X6X6X7X7X6XhX4X@.t.y.y.6.L       @ # # * X X < :.r.,.V p y  .4.:.t.;.;.;.4.%X7X7X7X7X8XgX7X7X7X7X7X7X7X7X7X7X7X7X7X7XgXgX6X6X7X7X7X7X7X7X",
"7X7X7X7X7X7X7X7X7X7X7X7X7X7X7X7X6XhXhX6X7XgX6XgX7X7X7X7X7XK.y.u.u.y.u.,.J $ X X X + 1 %.r.i.8.A e p ..3.5.4.4.4.;.;.4.%X8X7X7X7XgX7X7X7X7XgX7X7X7X7X7X7X7X7X7X7X7X6X6XhX7X7X7X7X7X7X",
"7X7X7X7X7X7X7X7X7X7X7X7X7X7X7X7X7X7X7X7X7X7X7X7X7X7X7X6X7XL.+.i.s.u.i.p.i.u.=.*.*.<.e.0.$.o.C y w P u.4.4.4.4.4.:.:.:.@X7X7X7X7X7X7X7X7X7X7X7X7X7X7X7X7X7X7X7X7X7X7X7X7X7X7X7X7X7X7X",
"7X7X7X7X7X7X7X7X7X7X7X7X7X7X7X7X7X7X7X7X7X7X7X7X7X7X7X6XhX,XV.q.u.h.w.q.q.$.$.!.Y.F.v.w z.M.* e G 4.y.4.4.:.:.4.:.:.:.+X7X7X7X7X7X7X7X7X7X7X7X7X7X7X7X7X7X7X7X7X7X7X7X7X7X7X7X7X7X7X",
"7X7X7X7X7X7X7X7X7X7X7X7X7X7X7X7X7X7XgX7X7X7X7X7X7X7X7XgX8XyXO.D.P.D.v.b.b.z.l.l.x.e c.m.M.C j 2 I r.5.5.y.:.4.4.:.:.t.0.6X7X7X7X7X7X7X7X7X7X7X7X7X7X7X7X7X7X7X7X7X7X7X7X7X7X7X7X7X7X",
"7X7X7X7X7X7X7X7X7X7X7X7X7X7X7XgX7X7XgX8XgX7X7X7X7X7X7X6X8XqX<.q b N.B.M.m.m.n.B B n.n.N.N.v.V a F 4.5.t.4.4.4.7.:.:.:.e.sX7X7X7X7X7X7X7X7X7X7X7X7X7X7X7X7X7X7X7X7X7X7X7X7X7X7X7X7X7X",
"7X7X7X7X7X7X7X7X7X7X7X7X7X7X7X7X7X7X7X7X7X7X7X7X7X7X7X6X8XqX] @.a M.N.Z.M.M.C.A.A.B.M.n.c.c.c.c.x.>.y.5.4.:.4.:.;.;.3.a.sXgX7X7X7X7X7X7X7X7X7X7X7X7X7X7X7X7X7X7X7X7X7X7X7X7X7X7X7X7X",
"7X7X7X7X7X7X7X7X7X7X7X7X7X7X7X7X7X7X7X7X7X7X7X7X7X7X7X7X8XqX' q.b.B.C.A.S.A.J.J.S.A.B.c.c.a c.m.p X.4.r.4.) ) ^ Q *...{ <XfX7X7X7X7X7X7X7X7X7X7X7X7X7X7X7X7XgX7X7X7X7X7X7X7X7X7X7X7X",
"7X7X7X7X7X7X7X7X7X7X7X7X7X7X7X7X7X7X7X7X7X7X7X7X7X7X7XgX8XqX[ 0.D.A.A.C.A.S.D.S.C.C.C.B B.B.m.B.v.G. .*...X.X.G F M.V.w ;XhX6X7X7X7X7X7X7X7X7X7X7X7X7X7X7X7X7X7X7X7X7X7X7X7X7X7X7X7X",
"7X7X7X7X7X7X7X7X7X7X7X7X7X7X7X7X7X7X7X7X7X7X7X7X7X7X7XgX8XuX] y.K.V.D.A.B.A.A.C.N.C.N.a B.C.m.m.m.B m c.e x.N.e f a B.C <XgX8X7X7X7X7X7X7X7X7X7X7X7X7X7X7X7X7X7X7X7X7X7X7X7X7X7X7X7X",
"7X7X7X7X7X7XgX7X7X7X7X7X7X7X7X7X7X7X7X7X7X7X7X7X7X7X7X6X8XuX,.I.H.C.D.C.B.n.B d B B d m.N.C.C.C.f f V d f s M.s t s m.J.7X7X7X7X7X7X7X7X7X7X7X7X7X7X7X7X7X7X7X7X7X7X7X7X7X7X7X7X7X7X",
"7X7X7X7X7X7X7X7X7X7X7X7X7X7X7X7X7X7X7X7X7X7X7X7X7X7X7XgX7XdX9.v.D.D.S.C.B.c.c.c.m.N.c.c.c.N.c.c.C.B.Z.m t u B u u B m ;XhX7X7X7X7X7X7X7X7X7X7X7X7X7X7X7X7X7X7X7X7X7X7X7X7X7X7X7X7X7X",
"7X7X7X7X7X7X7X7X7X7X7X7X7X7X7X7X7X7X7X7X7X7X7X7X7X7X7X7X8X1X<.H.C.S.B.C.C.m.c.n.A.m.c.m.m.m.a c.A.C.f M m M i r m r K.7X7X7X7X7XgX7X7X7X7X7X7X7X7X7X7X7X7X7X7X7XgX7X7X7X7X7X7X7X7X7X",
"7X7X7X7X7X7X7X7X7X7X7X7X7X7X7X7X7X7X7X7X7X7X7X7X7X7X7X6XjX).  j F.B f m.m.n.m.N.Z.d d c.d d d a y d f y u 9 9 i 3 F.3XhX7X7X7X7X7X7X7X7X7X7X7X7X7X7X7X7X7X7X7X7X8X7X7X7X7X7X7X7X7X7X",
"7X7X7X7X7X7X7X7X7X7X7X7X7X7X7X7X7X7X7X7X7X7X7X7X7X7X7X6XjX1X- & b V i s s s u u m i u u u s u t 9 9 r t t r 2 $ J.5XgX7X7X7X7X7X7X7X7X7X7X7X7X7X7X7X7X7X7X7X7X7XgXgX7XgX7X7X7X7X7X7X",
"7X7X7X7X8X7X7X7X7X7X7X7X7X7X7XgX7X7X7X7X7X7X7X7X7X7X7X8XhX1X; - o 8 M M 3 2 9 9 t t u u 3 9 9 9 0 9 9 4 $ 4 G.>XgXgX7X7X7X7X7X7X7X7X7X7X7X7X7X7X7X7X7X7X7X7X7X7X7X7X7X7X7X7X7X7X7X7X",
"7X7X7X7XgXgX7X7X7X7X7X7X7X7X7X7X7X7X7X7X7X7X7X7X7X7X7X7XhX1X- ; & o   & _.(.0 7 0 0 0 4 C C 5 4 = = * 0 /.<XgXjX7X7X7X7X7X7X7X7X7X7X7X7X7X7X7X7X7X7X7X7X7X7X7X7X7X7X7X7X7X7X7X7X7X7X",
"7X7X7X7X7XgX7X7X7X7X7X7X7X7X7X7X7X7X7X7X7X7X7X7X7X7X7X7X7X7XF   ; & j _.hXkXG.  * *   K.7X7XG.  = ;   ).kX8X7X6X7X7X7X7X7X7X7X7X7X7X7X7X7X7X7X7X7X7X7X7X7X7X7X7X7X7X7X7X7X7X7X7X7X7X",
"7X7X7X7X7X7X7X7X7X7X7X7X7X7X7X7X7X7X7X7X7X7X7X7X7X7X7X7X6XjX<XN     N jX7X6X(.& * * @ <XjXhX>Xo = . F.6X7X6X7X7X7X7X7X7X7X7X7X7X7X7X7X7XgX6XhX6X7X7X7X7X7X7X7X7X7X7X7X7X7X7X7X7X7X7X",
"7X7X7X7X7X7X7X7X7X7X7X7X7X7X7X7X7X7X7X7X7X7X7X7X7X7X7X7X7X7XhX6X_.K.>XhX3XN   O . o   ,XhXgX3X8 * & N <XhX7X7X7X7X7X7X7X7X7X7X7X7X7X7X7X7XgX6X6X7X7X8XgX7X7X7X7X7X7X7X7X7X7X7X7X7X7X",
"7X7X7X7X7X7X7X7X7X7X7X7X7X7X7X7X7X7X7X7X7X7X7X7X7X7X7X7X7X7X7X7XjXjXhXhX<X- 5 - 8 k N <XhXhX,X.       K.hX6X7X7X7X7X7X7X7X7X7X7X7X7X7X7X7X7X6XhX6XhXhX6X7X7X7X7X7X7X7X7X7X7X7X7X7X7X",
"7X7X7X7X7X7X7X7X7X7X7X7X7X7X7X7X7X7X7X7X7X7X7X7X7X7X7X7X7X7X7X7X6X6X6X6X6X5X3X4X4X6X6XhX6X7X6X2X;X/./.>XhX7X7X7X7X7X7X7X7X7X7X7X7X7X7X7X7X7X6XhX6X6X6XhX7X7X7X7X7X7X7X7X7X7X7X7X7X7X",
"7X7X7XgX7X7X7X7X7X7X7X7X7X7X7X7X7X7X7X7X7X7X7X7X7X7X7X7X7X7X7X7X7X7X7X7X7XhXhXhX7X7X7X7X7X7X8XhXjXhXjXhX6X7X7X7X7X7X7X7X7X7X7X7X7X7X7X7X7X7X7X7X7X7X7X7X7X7X7X7X7X7XgX7X7X7X7X7X7X7X",
"7X7X7X7X7X7X7X7X7X7X7X7X7X7X7X7X7X7X7X7X7X7X7X7X7X7X7X7X7X7X7X7X7X7X7X7X7X6X7X6X6X7X7X7X7X7XgX6X6X7X6X7X7X7X7X7X7X7X7X7X7X7X7X7X7X7X7X7X7XgX7X7X7X7X7X7X8XgX7X7X7X7X7X7X7X7X7X7X7X7X",
"7X7X7X7X7X7X7X7X7X7X7X7X7X7X7X7X7X7X7X7X7X7X7X7X7X7X7X7X7X7X7X7X7X7X7X7X7X7X7X7X7X7X7X7X7X7X7X7XgX7X7X7X7X7X7X7X7X7X7X7X7X7X7X7X7X7X7X7X7X7X7X8X7X7X7X7XgX7X7X7X7X7X7X7X7X7X7X7X7X7X",
"7X7X7X7X7X7X7X7X7X7X7X7X7X7X7X7X7X7X7X7XgX7X7X7X7X7X7X7X7X7X7X7X7X7X7X7X7X7X7X7X7X7X7X7X7X7X7X7XgX7X7X7X7X7X7X7X7X7X7X7X7X7X7X7X7X7X7X7X7X7XgXgX7X7X7X7XgX7X7X7X7X7X7X7X7X7X7X7X7X7X",
"7X7X7X7X7X7X7X7X7X7X7X7X7X7X7X7X7X7X7X7X7X7X7X7X7X7X7X7X7X7X7X7XgX8XgX7X7X7X7X7X7X7X7X7X7X7X7X7X7X7X7X7X7X7X7X7X7X7X7X7X7X7X7X7X7X7X7X7X7X7XgX7X7X7X7X7X7X7X7X7X7X7X7X7X7X7X7X7X7X7X",
"7X7X7X7X7X7X7X7X7X7X7X7X7X7X7X7X7X7X7X7X7X7X7X7X7X7X7X7X7X7X7X7X6XgXgXgX7X7X7X7X7X7X7X7X7X7X7X7X7X7X7X7X7X7X7X7X7X7X7X7X7X7X7X7X7X7X7X7X7X7X7X7X7X7X7X7X7X7X7X7X7X7X7X7X7X7X7X7X7X7X",
"7X7X7X7X7X7X7X7X7X7X7X7X7X7X7X7X7X7X7X7X7X7X7X7X7X7X7X7X7X7X7X7XgXgX7X7X7X7X7X7X7X7X7X7X7X7X7X7X7X7X7X7X7X7X7X7X7X7X7X7X7X7X7X7X7X7X7X7X7X7X7X7X7X7X7X7X7X7X7X7X7X7X7X7X7X7X7X7X7X7X",
"7X7X7X7X7X7X7X7X7X7X7X7X7XgX7X7X7X7X7X7X7X7X7X7X7X7X7X7X7X7X7X7X8X7X7X7X7X7X7X7X7X7X7X7X7X7X7X7X7X7X7X7X7X7X7X7X7X7X7X7X7X7X7X7X7X7X7X7X7X7X7X7X7X7X7X7X7X7X7X7X7X7X7X7X7X7X7X7X7X7X",
"7X7X7X7XhX6X6X6XhXhX6X6X7X7X7X7X7X7X7X7X7X7X7X7X7X7X7X7X7X7X7X7X7X7X7X7X7X7X7X7X7X7X7X7X7X7X7X7X7XgX7X7X7X7X7X7X7X7X7X7X7X7X7X7X7X7X7X7X7X7X7X7X7X7X7X7X7X7X7X7X7X7X7X7X7X7X7X7X7X7X",
"7X7X7X7X6XhXhX6X6X6X6XhX7X7X7X7X7X7X7X7X7X7X7X7X7X7X7X7X7X7X7X7X7X7X7X7X7X7X7XgX7X7X7X7X7X7X7XgX7X7X7X7X7X7X7X7X7X7X7X7X7X7X7X7X7X7X7X7X7X7X7X7X7X7X7X7X7X7X7X7X7X7X7X7X7X7X7X7X7X7X",
"7X7X7X7XgX8X7X7X7XgXgX6X7X7X7X7X7X7X7X7X7X7X7X7X7X7X7X7XgX8X7X7X7X7X7X7X7X7X7X7X7X7X7X7X7X7X7X7X7X7X7X7X7X7X7X7X7X7X7X7X7X7X7X7X7X7X7X7X7X7X7X7X7X7X7X7X7X7X7X7X7X7X7X7X7XgX7X7X7X7X",
"7X7X7X7X7X7X7X7X7X6X6XhX7X7X7X7X7X7X7X7X7X7X7X7X7X7X7X7XgXgX7X7X7X7X7X7X7X7X7X7X7X7X7X7X7X7X7X7X7X7X7X7X7X7X7X7X7X7X7X7X7X7X7X7X7X7X7X7X7X7X7X7X7X7XgX7X7X7X7X7X7X7X7X7X7X7X7X7X7X7X",
"7X7X7X7X7X7X7X7X7X7X7X7X7X7X7X7X7X7X7X7X7X7X7X7X7X7X7X7X7X7X7X7X7X7X7X7X7X7X7X7X7X7X7X7X7X7X7X7X7X7X7X7X7X7X7X7X7X7X7X7X7X7X7X7X7X7X7X7X7X7X7X7X7X7X7X7X7X7X7X7X7X7X7X7X7XgX8X7X7X7X",
"7X7X7X7X7X7X7X7X7X7X7X7X7X7X7X7X7X7X7X7X7X7X7X7X7X7X7X7X7X7X7X7X7X7X7X7X7X7X7X7X7X7X7X7X7X7X7X7X7X7X7X7X7X7X7X7X7X7X7X7X7X7X7X7X7X7X7X7X7X7X7X7X7X7X7X7X7X7X7X7X7X7X7X7X7X7XgXgX7X7X",
"7X7X7X7X7X7X7X7X7X7X7X7X7X7X7X7X7X7X7X7X7X7X7X7X7X7X7X7XgX7X7X7X7X7X7X7X7X7X7X7X7X7X7X7X7X7X7X7X7X7X7X7X7X7X7X7X7X7X7X7X7X7X7XgX7X7X7X7X7X7X7X7X7X7X7X7X7X7X7X7X7X7X7X7X7X7X7X7X7X7X",
"7X7X7X7X7X7X7X7X7X7X7X7X7X7X7X7X7X7X7X7X7X7X7X7X7X7X7X7X7X7X7X7X7X7X7X7X7X7X7X7X7X7X7X7X7X7X7X7X7X7X7X7X7X7X7X7X7X7X7X7X7X7X7X7X7X7X7X7X7X7X7X7X7X7X7X7X7X7X7X7X7X7X7X7X7X7X7X7X7X7X",
"7X7X7X7X6X6X6XhX6XgX6XhX7X7X7X7X7X7X7X7X7X7X7X7X7X7X7X7X7X7X7X7X7X7X7X7X7X7X7X7X7X7X7X7X7X7X7X7X7X7X7X7X7X7X7X7X7X7X7X7X7X7X7X7X7X7X7X7X7X7X7X7X7X7X7X7X7X7X7X7X7X7X7X7X7X7X7X7X7X7X",
"7X7X7X7XhXhX6X6XhX6XhX8X7X7X7X7X7X7X7X7X7X7XgX7X7X7X7X7X7X7X7X7X7X7X7X7X7X7X7X7X7X7X7X7X7X7X7X7X7X7X7X7X7X7X7X7X7X7X7X7X7X7X7X7X7X7X7XgX7X7X7X7X7X7X7X7X7X7X7X7X7X7X7X7X7X7X7X7X7X7X",
"7X7XgX7X6X6XhX6X6X6X7X7X7X7X7X7X7X7X7X7X7X7X7X7X7X7X7X7X7X7X7X7X7X7X7X7X7X7X7X7X7X7X7X7X7X7X7X7X7X7X7X7X7X7X7X7X7X7X7XgX7X7X7X7X7X7X7X7X7X7X7X7X7X7X7X7X7X7X7X7X7X7X7X7X7X7X7X7X7X7X"
};
