/* XPM */
static char *_932d63e5c154536a0d72d79e1c6138aODach17KqYcNenGE[] = {
/* columns rows colors chars-per-pixel */
"90 83 217 2 ",
"   c #E3AC00",
".  c #EBB900",
"X  c #E2AC1F",
"o  c #E7B81C",
"O  c #E29C27",
"+  c #E59D29",
"@  c #E5A424",
"#  c #E5AB26",
"$  c #E6A32B",
"%  c #E9A62A",
"&  c #E5AC2B",
"*  c #E9AC2C",
"=  c #E6B827",
"-  c #E6B42C",
";  c #E9B42D",
":  c #E6BB2D",
">  c #E9BC2D",
",  c #E5A934",
"<  c #E9AE33",
"1  c #E5B433",
"2  c #E9B533",
"3  c #E6BC32",
"4  c #E9BC32",
"5  c #E4B43C",
"6  c #E6BB3C",
"7  c #EAB83A",
"8  c #EAC400",
"9  c #EACE00",
"0  c #ECD300",
"q  c #EBDC00",
"w  c #E6C01B",
"e  c #EADA18",
"r  c #EDE100",
"t  c #EFEE07",
"y  c #EDE30F",
"u  c #EEED0C",
"i  c #F0E200",
"p  c #F0EB00",
"a  c #F0F500",
"s  c #F1FB00",
"d  c #F1FB0D",
"f  c #EEFA1C",
"g  c #F1FC15",
"h  c #F1FD1A",
"j  c #E6C324",
"k  c #EBC526",
"l  c #E6CC27",
"z  c #E9CC22",
"x  c #E7C32D",
"c  c #E9C32E",
"v  c #E6CB2E",
"b  c #E9CB2D",
"n  c #E7D522",
"m  c #EAD424",
"M  c #EADD23",
"N  c #E7D22E",
"B  c #EAD32D",
"V  c #EBDC2C",
"C  c #E7C431",
"Z  c #E9C431",
"A  c #E7CB33",
"S  c #E9CC32",
"D  c #E7C53B",
"F  c #E9C53B",
"G  c #E6CD3B",
"H  c #EACC3B",
"J  c #E7D333",
"K  c #EAD333",
"L  c #E7DA35",
"P  c #EBDB35",
"I  c #E7D53A",
"U  c #E9D43B",
"Y  c #EADB3B",
"T  c #EBE324",
"R  c #ECE927",
"E  c #ECE22D",
"W  c #EDEA2D",
"Q  c #EDF421",
"!  c #EEFA23",
"~  c #EEF42E",
"^  c #EFFC2D",
"/  c #F1FE26",
"(  c #F0FC2C",
")  c #ECE336",
"_  c #EDEB35",
"`  c #ECE43A",
"'  c #EDEC39",
"]  c #EEF435",
"[  c #EFFB35",
"{  c #EEF43A",
"}  c #EFFC3C",
"|  c #F0FE35",
" . c #F0FE3D",
".. c #E9AF40",
"X. c #E6B745",
"o. c #E9B341",
"O. c #E7BE44",
"+. c #E8BC4B",
"@. c #E9BD53",
"#. c #EABA57",
"$. c #DDBB79",
"%. c #E5BC66",
"&. c #E6C543",
"*. c #E8C442",
"=. c #E7CB45",
"-. c #E9CD43",
";. c #E6C449",
":. c #E7C94D",
">. c #E8CB4D",
",. c #E7D544",
"<. c #EAD444",
"1. c #EADC44",
"2. c #E7D24B",
"3. c #EAD44B",
"4. c #EADC4B",
"5. c #E9CC53",
"6. c #EAC15A",
"7. c #E7D255",
"8. c #E9D353",
"9. c #EBDC53",
"0. c #E9D45B",
"q. c #EBDC5D",
"w. c #EAE242",
"e. c #ECEC43",
"r. c #EBE34B",
"t. c #EDEC4B",
"y. c #EDF443",
"u. c #EFFD43",
"i. c #EEF54B",
"p. c #EFFC4B",
"a. c #F0FF42",
"s. c #F1F34D",
"d. c #F1FE49",
"f. c #EBE555",
"g. c #EDEB53",
"h. c #ECE45C",
"j. c #EEEC5C",
"k. c #F1EF50",
"l. c #EEF554",
"z. c #EFFA54",
"x. c #EEF55C",
"c. c #EFFA5B",
"v. c #F0FE52",
"b. c #F0FE5B",
"n. c #DEC77B",
"m. c #E8CF62",
"M. c #EAC26B",
"N. c #E9D265",
"B. c #EBDC62",
"V. c #E9D768",
"C. c #E4CB77",
"Z. c #E1D97B",
"A. c #ECE364",
"S. c #EEE964",
"D. c #ECE36B",
"F. c #EDE86B",
"G. c #EEF463",
"H. c #EFFD62",
"J. c #EFF369",
"K. c #F0FF62",
"L. c #F0FC68",
"P. c #ECE474",
"I. c #EDED73",
"U. c #E2E27C",
"Y. c #ECE77A",
"T. c #E4EC7C",
"R. c #EDEC7B",
"E. c #EFF472",
"W. c #ECF874",
"Q. c #E5F17D",
"!. c #EFF17B",
"~. c #F0FD73",
"^. c #F1FE7B",
"/. c #DEB68F",
"(. c #DFBB8F",
"). c #DFC48F",
"_. c #DBC790",
"`. c #DECC91",
"'. c #DDD290",
"]. c #DED890",
"[. c #E1C68C",
"{. c #E1D686",
"}. c #E0D290",
"|. c #E1DB91",
" X c #EFEB86",
".X c #EBF389",
"XX c #F1FD83",
"oX c #F0F48C",
"OX c #F2FD8A",
"+X c #E1E491",
"@X c #E1EA92",
"#X c #BDE6F6",
"$X c #BFE9F5",
"%X c #BCE6FA",
"&X c #BDE9F9",
"*X c #BCE8FB",
"=X c #BCEAFB",
"-X c #BCEBFB",
";X c #C9DDD6",
":X c #CAE3D6",
">X c #CAE6D7",
",X c #CCE7D7",
"<X c #CBEAD6",
"1X c #CCEDD7",
"2X c #CBE6DB",
"3X c #CCEDD8",
"4X c #CCEFD8",
"5X c #CCEEDA",
"6X c #CCECDC",
"7X c #CDF0D8",
"8X c #C6E4E2",
"9X c #C7EBE3",
"0X c #C6E9E5",
"qX c #C0E8F3",
"wX c #C0E9F3",
"eX c #C0E9F4",
"rX c #C0EAF4",
/* pixels */
"$X$X$X$X$X$X$X$X$X$X&XeXeX$X$X$X$X$X$X$X$X$X$X$X$XeX$X$X$X$X$X$X$X$X$X$X$X$X$X$X$X$X$X$X$X$X$X$X$X$X$X$X$XeX&X$X$X$X$X$X&X$X$X$XeX$X$X$X$X$X$X$X$X&XeXeX$X$X$X$X$X$X$X$X$X$X$X$X$X$X",
"$X$X$X$X$X$X$X$X$X$X$X$X$X$X$X$X$X$X$X$X$X$X$X$X&XeX$X$XeXeX$X$X$X$X$X$X$X$X$X$X$X$X$X$X$X$X$X$X$X$X$X$X$X$XeXeX$X$X$X$XeXeX$X$XeX&X$X$X$X$X$X$X$X$X$XeX$X$X$X$X$X$X$X$X$X$X$X$X$X$X",
"$X$X$X$XeX$X$X$X$X$X$X$X$X$X$X$X$X$X$X$X$X$X$X$X$X$X$X$X&XeX$X$X$X&XeX$X$X$X$X$X$X$X$X$X$X$X$X$X$X$X$X$X$X$X$X$X$X$X$X$X$X$X$X$X$X$X$X$X$X$X$X$X$X$X$X$X$X$X$X$X$X$X&XeX$X$X$X&X$X$X",
"$X$X$X$XeX&X$X$X$X$X$X$X&X$X$XeX$X$X$X$X$X$X$X$X$X$X$X$X$X$X$X$X$X$XeX$X$X$X$X$X$X$X$X$X$X$X$X$X$X$X$X$X$X$X$X$X$X$X$X$X$X$X$X$X$X$X$X$X$X$X$X$X$X$X$X$X$X$X$XeX$X$XeXeX$X$XeXeX$X$X",
"$X$X$X$X$X$X$X$XeX&X$X$XeX$X$X$X$X$X$X$X$X$X$X$X$X$XeX$X$X$X$X$X$X$X$X$X$XeX$X$X$X$X$X$X$X$X$X$X$X$X$X$X$X$X$X$X$X$X$X$X$X$X$X$X$X$X$X$X$X$X$X$X$X$X$X$X$X$X&XeX$X$XeXeX$X$X$X$X$X$X",
"$X$X$X$X$X$X$X$XeX$X$X$XeX$X$X$X$X$X$X$X$X$X$X$X$X$XeX&X$X$X$X$X$X$X$X$X&XeX$X$X$X$X$X$X$X$X$X$X$X$X$X$X$X$X$X$X$X$X$X$X$X$X$X$X$X$X$X$X$X$X$X$X$X$X$X$X$X$X$X$X$X$X$XeX$X$X$X$X$X$X",
"$X$X$X$X$X$X$X$X$X$X$X$X$X$X$X$X$X$X$X$X$X$X$X$X$X$X$X$X$X$X$X$X&XeX$X$X$X$X$X$X$X$X$X$X$X$X$X$X$X$X$X$X$XeX$X$X$X$X$X$X$XeX$X$X$X$X$X$X$X$X$X$X&X$X$X$X$X$X$X$X$X$X$X%X$X$X$X$X$X$X",
"$X$X$X$X$X$X$X$X$X$X$X$X$X$X$X$X$X$X$X$X$X$X$X$X$X$X$X$X$X$X$X$X$XeX$X$X$X$X$X$X$X$X$X$X$X$X$X$X$X$X$X$X&XeX$X$X$X$X$X$X$XeX&X$X$X$X$XeXeX&X$XeXeXeX$X$X$X$X$X$X$X$X$X$X$X$X$X$X$X$X",
"$X$X$X$X$X$X$X$X$X$X$X$X$X$X$X$XeX$X$X$X$X$X$X$X$X$X$X$X$X$X$X$X$XeX$X$X$X$X$XeX$X$X$X$X$X$X$X$X$X$X$X$X$X$X$X$X$X$X$X$X$X$X$X$XeXeX&XeXeX&XeXeX$X$X$X$X$X$X$X$X$X$X$X$X$X$X$X$X$X$X",
"$X$X$XqXqX$XqX$XeXeXeXeXeXeXeXeXeXeXeXeX$X$XqX$X#X$X$X$X$X$XqX$XeXeXeXeX$X$X#XqXqX$XqXqX$X$X$X$XqXeX$X$X$XqXeXeX$XeX$X$X$XqXqXqXeXeX$XeXeX$XqXeX$X$X$X$X$X$X$X$X$XeXqX$X$X&X$X$X$X$X",
"$X$X&X%X&X&X&X&X%X&X&X&X*X&X&X&X&X&X&XqX&X*X&X&X%X&X&X%X&X&X%X&X%X&X%X%X&X&X&X&X&X&X$X&X&X&X*X$X&X&X*X*X&X&X&X&X&X%X*X*X*X&X$X*XeXeX&XeX&X&X*X%X&X*X&X*X*X&X%X&X&X&X%X&X&X*X&X&X$X$X",
"$X$X8X5X<X;X,X1X5X,X:X5X3X2X>X5X5X>X2X5X:X;X5X5X5X:X5X5X,X;X5X,X5X,X1X5X<X:X5X5X3X;X5X1X;X<X5X7X>X2X3X3X2X<X1X5X:X2X7X>X;X3X3X1X:X9X6X:X;X5X5X5X>X1X1X,X,X5X5X<X:X5X5X;X>X3X<X6X$X$X",
"$X&X[.s ^ o r h h r r d / 1.r h g 0 0 s S.X a g g 8 s.d.j.8 d g d 9 s | j.9 h h t . d f = r h g q r d / 1.i h g 0 0 s F.- s g h 8 s.d.j.8 g g d 9 d f S.0 d g t . d h j q / s W.#X$X",
"$X&X`.a p.0.` d.u.` ` a.u.P ` u.a.U H | ~.m.] a.a.D ] } G.-.} a.y.U } z.OXU y.a.e.4 u.u.0.` u.u.` w.u.u.P ` a.u.H U [ ~.0.] u.u.F { | c.G u.y.u.G } u.y.Y u.u.e.2 y.u.q.1.d.! Q.#X$X",
"$X&X`.a a.P ) } } ) `  . .K P }  .K Z  .| B {  . .Z ' } [ J { } { S  .[ i.S  . .{ > { } P ` } } ) ) } } P P  . .J S u.^ B { { } A { } { S } } ] B } } ] S { } ' ; { } P P u.g Q.$X$X",
"$X%X}.s d.P )  .a.P ` } } P S  . .A Z  . .K {  . .A { } { J } } u.U {  .] > {  .' : } } ) ) }  .P _ } } K S  . .S Z } { K | } } A { } { S  . .y.H { } { : } } _ > } } ) ) d.d .X#X$X",
"$X&X}.a u.) H e.T x ` } } P & ) Y , c  . .v Y _ T 3 { } } C P E h.=.{ } } - K ) > 4 } } ) H ' T x ) } } P & ' I & > }  .x w.' M 4 {  .{ A P W h.&.[ } { - K ' : > { } ` A e.E +X&X$X",
"$X%X}.s u.) U !.oXA ) } } L A ] y.G ; { { x f.oXF.o {  .} > P ' : ;  . .{ ; ) { P C }  .P U !..XA ) } } P S { y.&.=  .{ x g..XR.o }  .{ : ) { : : } } { 2 P ' Y Z } } _ + P k.{.#X$X",
"$X*X|.a u.) K [ ^.S.V } } P )  .} J ;  .{ Z ] v.XXH { { } Z _  .L ;  .{ y.2 '  .{ S } } P P [ ^.h.E u.} P `  .} J ;  .{ C ] d.^.U ] } } > '  .P : } } ' * { } { C  . .` K a.d Q.#X$X",
"$X%X|.s u.P P } / w.P u.} P _ } } K *  . .A { [ [ H {  .} 4 `  .{ x [ ^ i.< _  .' S }  .P P } ^ w.) } } P _ } u.J ;  . .A ' [ [ -.{ } } > ' } { C } } ) & ' } ' x  . .P P a.h Q.#X$X",
"$X%X|.s u.J K }  .r.S [ } P ' } } K % { } b '  .y.<.] _ V > _  .} A l.^.S.@ {  .' S } { S P  .a.4.B ^ { P ' } } S % { [ b {  .y.<.] ) V > ' } { A ' { L % ] } { S { [ B P a.g T.#X$X",
"$X%X'.q 4.1 K }  .E F f.J = ' }  .K - N 1.*.] }  .A > <.7.# {  .{ x 4.r.1 * {  .{ Z ) 4., P  .} E O.h.L - { } } J 3 B 3.O._  . .x ; 3.7.# { } { C K I - * { } ' 4 ) 4.5 L u.g T.#X$X",
"$X%X|.s L.B.m  . .P 4.b.H.>.W } } K ' | v.7.W }  .c v d.x.4 '  .{ > { {   * {  .' J [ H.B.m } } V 4.c.L.2.W } } J {  .p.5._  . .c K d.x.4 { } [ = {  .# * {  .' C [ K.D.m u.d Q.#X$X",
"$X&X|.s p.g.B  . .) K ^ p.4._ } } P '  . .B ' }  .S { { [ Z '  .u.2 ' ^.V.= {  .' S } } r.P }  .Y V ^ p.4._ } } K _  .| b '  .} J { [ [ c { } i.2 ' } A ;  . .' x } } t.P u.g Q.#X$X",
"$X%X|.s u._ K  .} P P } } P _ } } P ' }  .S '  . .A {  .{ C { | z.X.W d.c.Z {  .' K  . .) S  .} P P u.} L ' } } K { } } S _  .{ S } } } 4 { [ l.7 _ } { x { } ' S  .} _ J d.g Q.#X$X",
"$X&X|.s u.' Z P ` S P } } ) ' } } J ' }  .K K P ` c {  . .A }  .p.o.)  .R C  .a.{ S  . .' C P ' S P } } P { } } J { } } J S P ` x { } { C  . .d...) } ' A } } { b  .} ' x a.g T.$X$X",
"$X&X|.s p._ C P P 2 P  .} P A ) Y 3 { { } J K P K ; {  .{ C P ` <.$ )  .' : t.j.w.S } } _ x P P 1 ) } } P S ) ` 4 {  .{ S S P K 3 { } } Z ,.) G + )  .` > t.j.1.x  . .' & ` y n.&X$X",
"$X&X].s u.' 4 y.{ <.P  .} P P ] i.7.] } } A U { t.F { { } 3 > ' K % P a.' c ` P K K  .} ` 4 { y.,.L } } ) P ] i.7.] }  .A P { y.H { } } ; 4 { L * P  .K Z ) K J S  . .` P { R +X#X$X",
"$X&X].s u.' K }  .) P } } ) {  .} Y ' } } S ' } } v {  .{ v ]  .} ; K } _ K  . .' J } } ) P } } ) P } } ) ' u.} K ' } } S '  . .S { { { A {  .} 2 K  .P J  . .' J } { ] _ u.h T.#X$X",
"$X*X+Xs u._ P }  .) P } u.P ' } } J ' } } K ' } } A ' }  .A  .{ } ; P [ i.P {  .{ K }  .) ) } } P P  .} P ' } } K ' } } K { } } C {  .} A { } } ; P  .{ K  . .' b  . .` ) u.g T.#X$X",
"$X*X+Xa w.x ) } } ) ) { E B _ } } J ) [ } K { }  .c P } _ : {  .} : ) ^.oXY  . .' K ' P C P } } ) ) { V v { } } A ) [ { K { } } x K } E > { } { > t.b._ K  .} ' K { P A ` u.g T.#X$X",
"$X&X'.9 G # ) } } ) & H 0.6 _ } } N &.r.l : { } } C C ) >.2  .{ } x A 1.D B  .{ { C P I # ) } } ) & S 0.6 ] } } N :.f.l - { } } C S ) 8.7 [  .{ x H 1.v J } } _ *.1.L # ) d.g T.#X$X",
"$X&X`.a K.%.M a.} ) ; { z.3._ }  .B j.c.G.D { } { L } { v.&.] } { J } | _ K  . .{ 4 ^ K.M.T a. .P >  .v.4._ } } m j.b.J.F {  .{ K  .| l.*.] } { J { | ` K  . .' > ^ K.C.M d.g T.#X$X",
"$X&X).a b.P.V  .} ) ) } [ P _ } } J ) ^ c.-.] }  .P { } ] C } } } P { } ' S }  .{ 4 ] v.D.E  . .P ) } [ P ' } } K E | l.H { } } P { } ] x } } { P  . .' J } } ' 2 ] d.F.) a.g T.#X$X",
"$X&X).a  .R P  .} ) P }  .P ) u.} B ) u.[ S { }  .L { } } 4 ' } ] P  .} { S } { ' ; {  .T ` a. .P P  .u.P _ } } J ' a.[ S { } } P  .} } > {  .] L } } ' S } } { * {  .R ) u.g T.#X$X",
"$X&X).p p.) )  .{ P P } } P ) }  .K _ } } J ] [ { K { } } ; ' } l.1.|  ._ 4  . .} ; ] a.P )  .] P ) } } P ) } u.K ' } } K ] | ' K  .{ } > ` | x.1.[ } ' C } } { & _  .` P a.g T.#X$X",
"$X-X(.t u.) x 1.U A P } } P A ` V : ' } } S <.,.m J  . .{ : C { V.U [ } { - ) ` <.* '  .P x Y U C ) }  .P H ' V : ] } } S 3.4.n S  . .{ - C ' N.H  .} ' - ` ' 1.% _ } ) 3 ` r Z.#X$X",
"$X-X(.i d.K S i.x.Y P } } V B.G.f.1 _ } } S f.OX!.w }  .} - K { _ L } } { x J Y A % '  .K A l.x.Y P } } V q.G.f.1 ' } } S t.oX!.z  .{  .- P { _ P  .} ' C P Y A , ` u.P * e.u U.#X$X",
"$X-X(.i d.P K  .| ` P  .} P ' | K.>._  .} J W a.~.Y ] }  .* P  .} P } } { x P ' _ % ) a.P K  . .) P  . .L _ [ K.=._ } } S ~ } ~.Y {  .{ - P  .} P  . .' 4 P _ ` #.P } ) & u.h Q.#X$X",
"$X-X(.i d.P c  . .P J } } P )  .| K ' }  .S '  .| ,.' }  .; P  .{ P { } ' A } } { * )  .P Z  . .P J }  .P ) } } S { } } S { } { ,.{ }  .2 P  .{ P  . ._ C  . .y.#.E a.) ; u.h T.#X$X",
"$X-X/.q u.P c }  .) - { { b `  . .S ' ' ) x { { d.-.] { { - P  .{ P  .{ j.F  . .{ % K } V Z  . .) - { ] x ' } } S ' _ P c '  .d.-.] } { & P } { P } { j.H { { i.%.b  .E ; y.g T.eX$X",
"$X&X_.9 1.2.c } a.) 3 ) w.+._ } } K C B Y 6 ] }  .x F Y L # `  . .: S _ ;.Z  . .' 4 I ) 5.c  . .) x ) r.;._  .} S A L 1.3 ' } { x F Y J * _ } { : K _ ;.S  .[ v. XB P 0.4 a.h T.$X$X",
"$X#X@Xs y.g.4 }  .) _ { p.8.E } } A P  .d.H _ }  .c Y  .y.+._  . .> _  ._ C } } { P }  .t.4 } } ) ' | d.9.) } } A P } u.S '  .} Z Y } p.+._  .} : `  .E C  .[ l.F.(  .g.Z a.h Q.%X$X",
"$X&X@Xs d.W * {  .) '  .} V '  .} J `  .} J { }  .c Z | v.6.E  .} C { } { S { } t.) } } ) > { } ) )  . .B _ } } J ' } } S { } } > b [ c.#.R u.{ A {  .{ S a.| x.F.(  ._ c a.h T.$X$X",
"$X%X@Xs d.' ; { } ` _  . .P _  . .J `  . .S ` } { 3 Z | z.@.W  .{ J }  .' S  ./ i.P } } ` ; { } ) ' } } K _ }  .K ' } } S `  .{ > S  .l.+._  .{ J {  .' J } f l.h.| a.` S a.d Q.$X$X",
"$X&X@Xs u._ ; } | ` '  .} K ' { ' S '  .} B J P ' - S  .{ 4 { a. .K {  .{ K  .XX!.M } } ' ;  .} ) ' } } L { } ' S ' } } K S P _ * S  .{ 2 } a.} B }  .{ K [ ^.!.r. . .' V d./ Q.#X$X",
"$X%X@Xs u.' & ) w.H ' } } P J J K 3 {  . .S S P U $ K } { : 1.h.r.v }  .{ F F.Y.I P  .} ' & ) e.D ' } } L S J U 3 {  .} S S P U $ P } { = 1.h.r.x  . .{ S P. X,.9.| a.' F f.r.U.$X$X",
"$X%X@Xs u._ - _ c.m._ } } K A { y.-._  . .A P { y.4 P } { C ) P P A } { { K W e L P }  .` ; ] l.m.W u.} K S { i.H ]  . .C P } y.4 P } { C ' E P A { } { v _ e U 4.| } ) J ` q Z.%X$X",
"$X%X@Xs u.) S }  .w._ } } K `  . .L _ } } J '  .} c P  .{ J  . .} K {  .{ P  .a.' P }  .` S  . .` ) } } K `  . .B { } } J _ } } c P  .} K } } { J {  .{ L  .a.' Y {  ._ ) a.h T.#X$X",
"$X&X+Xs u.' K } } ) ` }  .K ` } } J '  . .K ' } } Z )  .) 3 } } } S  . .] P } { ' P }  .` L } } ) ) } } K '  . .J { } } J { } } 4 )  .P C {  .{ J  .| ] P {  ._ B a. .' ) a.g T.#X$X",
"$X*X].a u.) P  .} ) K [  .J _  .} K _ | } S { }  .C )  .x = } } { > K d.h.K {  .{ C ~ { P P } } P L } { J ' } } J ' } { A { } } x ) [ > 3  .{ { > K d.h.B  .} { *.~ ] ) P a.g Q.#X$X",
"$X*X`.P 1.# P  .} ) 6 ,.P x _ }  .J C ` v = { } } A J ` O.; } } } C C -.&.J  . .] *.A.P # P } } ) 1 1.L x { } } S x ) v - } } } C V e.;.:  . .{ C c 8.;.v  .} ' 5.q.1.= P a.g Q.#X$X",
"$X*X+Xd.H.7.B  . .) 4 a. .w.'  .} S K  .t.5 { } } A ' d.E.c {  .{ K  ._ P K  . ._ <.b.b.0.V } } L C }  .f.'  .} v P  .t.5  .{  .Z ] d.E.C  .} { K } _ V P  . ._ U b.b.B.M d.g T.#X$X",
"$X%X+Xs p.r.Y  . .w.2 y. .q.' } } S K  .s.>._ }  .C ' | v.H ] } } K {  .{ P  . .{ J ( a.4.V } } ) * { } D._ } } S K } i.>.] }  .b ' | s.H { } { J {  .{ K {  .' S |  .r.P u.g Q.#X$X",
"$X%X+Xs u.w.r.a. .w.7 y.u.B._  . .S K } ] S }  . .A '  .{ A {  . .K  .} { S  . ._ J a. .) P }  .) * ] d.B._ u.} S K } { S { } } A { } { v {  .{ S } } ' K  . .' K }  .` P d.h T.#X$X",
"$X*X+Xs u.e.3.u. .w.7 { } S '  . .x P  . .S { ] _ A ]  .} Z {  . .S { } { Z { a.{ P  . .` c { } Y * { } S ' | } Z P } } S { ] _ v { } } Z _  .a.K } } ' Z  . .' K } } _ K u.s Q.#X$X",
"$X%X+Xs d.' X.3.L 1 F }  .J S r.w.- P  . .S U <.U c { { } 4 U ' <.F {  .{ > ) ` -.K  .} ' , Y L & > }  .J A r.w.; P  . .Z U 3.1.> {  .} > K ` U F { } { : ) ' =.S  .} ' - w.` {.%X$X",
"$X*X+Xs u.' 9.p.{ 5.7 } } K P l.l.S P  .{ S ` b.l.C { } } A S K K > }  .{ F K P v K } } ) Y } { >.;  . .J Y z.z.S P  .{ S ' b.i.b {  .} Z K P J x } } { A I P C A  . ._ & ` l.{.$X$X",
"$X&X+Xs u.' 4.a.} A.Z  . .K P }  .J P  . .C ' | } S { } } A P ' _ Z  . .] Z ) { ` P } } ) L  . .9.c  . .P ) [  .K )  . .C ' |  .S '  .{ Z P ' ' A } } ] Z P { P J  . .` P u.s T.#X$X",
"$X%X@Xs u.w.r.} u.A.F  .{ > P }  .J `  .} Z ) a.} S } } { c {  .} A ~  .x.A  . .' P }  .P K  .u.8.c  .' - P } } K )  . .> )  .{ S }  .} Z }  .} A ~ } l.S  .} ' K  . .) ) a.h T.#X$X",
"$X*X@Xa Y U 4.a.a.Y -. .) + K }  .J P  .] ; P  .} S _ ) J > { } { S J.b.B.k  . .' P ' P v K }  .V C  .V O P { } J ) { W ; ) a. .S _ E K 2 { } ] S G.b.A.k a.} ' P ' P B P a.g T.#X$X",
"$X&X`.9 Y -.3.u.} ) F P ,.@ K }  .J S ) 2.$ )  .} v <.9.1.: {  . .c <.` j C }  .{ 4 P ` H S u. .P Z ) 8.% K  .} J S ' 8.@ )  .} v <.q.1.= { }  .> 3.P j C } } _ m.U ` >.P d.g T.#X$X",
"$X*X'.s u.t.<.u.} r.1.| ~.>.k  . .J ` | ~.O.V  . .S { v.p.c '  . .Z ]  .} Z } } e.S  . .` S } } P P [ ~.5.k } } S ` | ~.O.B  .{ S } d.a.x { { u.A ] } { S  .} ' F } } ' ) u.g U.#X$X",
"$X%X+Xs d.' 3.} d.w.1. .d.3.> a. .J )  .d.F b }  .A ' [ ] Z { a.a.<.{ y.{ S } } e.Y  . .) S  . .P P [ u.3.k }  .v `  .d.F S }  .x '  . .C {  .a.<.{ u.{ K } } t.K } } _ P u.g T.$X$X",
"$X%X+Xs u.t.H u.u.3.r.u.} V >  . .J )  .} S J  . .Z '  .{ C { ! i.Y {  .{ S | ^ t.)  . .` b  . .x P  .} K Z  . .S `  . .A S } } C ' } } C ] ! l.U { } { S [ ^ t.L {  .' K u.h T.#X$X",
"$X%X@Xs u.' U } { O.r. .} K c }  .J )  .u.S B  . .Z _  .{ S { ^.XXV } } { P d.OXI.M u. .` A  ._ @ )  . .K c  . .K )  . .S K } } Z ' } { A a.XXXXm } } { K u.OXI.e a.{ ' C u.h U.#X$X",
"$X#X@Xs u.e.;.w.U X.w.u.} P - ) ) 3 `  .} K : ) U & ` } { x h.Y.<.b u. .{ F A.P.v P  .} ) : P I 5 )  . .P > P P 3 ' } } S > P J * `  .} x q.P.U v } } { H D.P.v K  .} { # ` q $.$X$X",
"$X&X@Xs u.e.r.{ y.P.r.d.} ) ` ` P 4 )  .} S S } ) % )  .} C _ Q ) S } { { K ~ Q K P } } ` ) { u.q.P  . .) ) ` ) > ' } } S S { ) % ) } { C ~ ! ) S } } { J ~ Q J P } } ' : y.u n.#X$X",
"$X%X@Xs u.) `  . .P P  .} ) { }  .K ` } } K _ }  .> P } } J } u. .K  .} { P  .u.) P } } ' ) }  .P P } } ) { } u.J ` }  .J ' } } 4 P } } S a.u.{ K } } ' P a.a.) P } } ' K d.h T.#X$X",
"$X%X@Xs u.' ) }  .) P  .} ) _ } } S ` }  .K { } } > P } { S { { { P  .} ] P } } ) P } } ` ) }  .) ) } } L ' } } S _  . .S { } } > P } { S  . .{ K  .} ] P } } ) P } } ' P u.g T.#X$X",
"$X*X+Xs u.V )  .| P L { ) j _ } } N E _ B k { { { > V } { B [ } ] B  .| x.1.| [ _ B { | K ) | [ V P ' ) x ] } [ B ) _ B k { [ } = P } ] S [ { [ B { [ l.Y [ } E v | { V ) u.s T.#X$X",
"$X$X8X9X9X8X9X9X9X9X8X8X8X8X9X9X9X9X9X8X8X8X9X9X9X2X9X9X9X8X9X9X9X8X8X9X9X8X9X9X0X8X9X9X8X9X9X9X9X8X8X8X2X9X9X9X8X8X8X8X8X9X9X9X8X9X9X8X8X9X9X9X8X9X9X9X8X9X9X9X8X9X9X8X2X9X9X9X$X$X",
"$X$X*X&X&X&X&X$X*X$X*X*X&X&X&X$X*X*X$X&X*X$X&X&X*X*X&X&X$X&X&X&X&X&X&X&X&X&X&X%X&X&X%X&X&X&X&X%X%X&X$X&X&X$X*X&X&X$X*X&X*X$X*X&XqX&X&X&X&X%X&X&X&X%X$X&X&X%X&X&X*X$X&X&X*X$X*X*X$X$X",
"$X$X$X$X$X$X$X$X$X$X$X$X$X$X$X$X$X$X$X$X$X$X$X$X$X$X$X$X$X$X$X$X$X$XeX$X$XeX$X$X$XeXeX$X$X$XeX$X$X$X$X$X$X$X$X$X$X$X$X$X$X$X$X$XeXeXeX$X$X$XeXeX$X$X$X$X$X$XqX$X$X$X$X$X$X$X$X$X$X$X",
"$X$X$X$X$X$X$X$X$X$X$X$X$X$X$X$X$X$X$X$X$X$X$X$X$X$X$X$X$X$X$X$X$X$X$X$X$X$X$X$X$X$X$X$X$X$X$X$X$X$X$X$X$X$X$X$X$X$X$X$X$X$X$X$X$X$X$X$X$X$X&X$X$X$X$X$X$X$X$X$X$X$X$X$X$X$X$X$X$X$X",
"$X$X$X$X$X$X$X$X$X$X$X$X$X$X$X$X$X$X$X$X$X$X$X$X$X$X$X$X$X$X$X$X$X$X$X$X$X$X$X$X$X$X$X$X$X$X$X$X$X$X$X$X$X$X$X$X$X$X$X$X$X$X$X$X$X$X$X$X$XeXeX$X$X$X$X$X$X$X$X$X$X$X$X$X$X$X$X$X$X$X",
"$X$X$X$X$X$X$X$X$X$X$X$X$X$X$X$X$X$X$X$X$X$X$X$X$X$X$X$X$X$X$X$X$X$X$X$X$X$X$X$X$X$X$X$X$X$X$X$X$X$X$X$X$X$X$X$X$X$X$X$X$X$X$X$X$X$X$X$X$X$X$X$X$X$X$X$X$X$X$X$X$X$X$X$X$X$X$X$X$X$X",
"$X$X$X$X$X$X$X$X$X$X$X$X$X$X$X$X$X$X$X$X$X$X$X$X$X$X$X$X$X$X$X$X$X$X$X$X$X$X$X$X$X$X$X$X$X$X$X$X$X$X$X$X$X$X$X$X$X$X$X$X$X$X$X$X$X$X$X$X$X$X$X$X$X$X$X$X$X$X$X$X$X$X$X$X$X$X$X$X$X$X",
"$X$X$X$X$X$X$X$X$X$X$X$X$X$X$X$X$X$X$X$X$X$X$X$X$X$X$X$X$X$X$X$X$X$X$X$X$X$X$X$X$X$X$X$X$X$XeX$X$X$X$X$X$X$X$X$X$X$X$X$X$X$X$X$X$X$X$X$X$X$X$X$X$X$X$X$X$X$X$X$X$X$X$X$X$X$X$X$X$X$X",
"$X$X$X$X$X$X$X$X$X$X$X$X$X$X$X$X$X$X$X$X$X$X$X$X$X$X$X$X$X$X$X$X$X$X$X$X$X$X$X$X$X$X$X$XeXeX&X$X$X$X$X$X$X$X$X$X$X$X$X$X$X$X$X$X$X$X$X$X$X$X$X$X$X$X$X$X$X$X$X$X$X$X$X$X$X$X$X$X$X$X",
"$X$X$X$X$X$X$X$X$X$X$X$X$X$X$X$X$X$X$X$X$X$X$X$X$X$X$X$X$X$X$X$X$X&XeX$X$X$X$X$X$X$X$X$X$X$X$X$X$X$X$X$X$XeX$X$X$X$X$X$X$X$X$X$X$X$X$X$X$X$X$X$X$X$X$X$X$X$X$X$X$X$X$X$X$X$X$X$X$X$X",
"$X$X&X$X$X$X$X$X$X$X$X$X$X$X$X$X$X$X$X$X$X$X$X$X$X$X$X$X$X$X$X$X$X$XeX$X$X$X$X$X$X$X$X$X$X$X$X$X$X$X$X$X$XeX&X$X$X$X$X$X$X$X$X$X&X$X$X$X$X$X$X$X$X$X$X$X$X$X$X$X$X$X$X$X$X$X$X$X$X$X",
"$X$X$X$X$X$X$X$X$X$X$X$X$X$X$X$X$X$X$X$X$X$X$X$X$X$X$X$X$X$X$X$X$X$X$X$X$X$X$X$XeX&X$X$X$X$X$XeX$X$X$X$X$X$X$XeX$X$X$X$X$X$X$X$X$X$X$X$X$X$X$X$X$X$X$X$X$X$X$X$X$X$X$X$X$X$X$X$X$X$X"
};
